<svg width="109" height="109" viewBox="0 0 109 109" fill="none" xmlns="http://www.w3.org/2000/svg">
<path d="M20.3424 27.5603H31.6287C33.3164 27.5603 34.7027 26.2644 34.8232 24.637C34.8232 24.5616 34.8383 24.4863 34.8383 24.426V16.9068C34.8383 16.8315 34.8383 16.7561 34.8232 16.6959C34.7027 15.0685 33.3164 13.7726 31.6287 13.7726H20.3424C18.6547 13.7726 17.2684 15.0685 17.1479 16.6959C17.1479 16.7712 17.1328 16.8466 17.1328 16.9068V24.426C17.1328 24.5014 17.1328 24.5767 17.1479 24.637C17.2684 26.2794 18.6547 27.5603 20.3424 27.5603ZM30.6191 17.9918V23.3411H21.3671V17.9918H30.6191Z" fill="white"/>
<path d="M43.186 27.5603H54.5326C56.2203 27.5603 57.6066 26.2644 57.7271 24.637C57.7271 24.5616 57.7422 24.4863 57.7422 24.426V16.9068C57.7422 16.8315 57.7422 16.7561 57.7271 16.6959C57.6066 15.0685 56.2203 13.7726 54.5326 13.7726H43.186C41.423 13.7726 40.0518 15.1438 40.0518 16.9068V24.426C40.0518 26.189 41.423 27.5603 43.186 27.5603ZM53.523 17.9918V23.3411H44.2709V17.9918H53.523Z" fill="white"/>
<path d="M20.3424 50.5398H31.6287C33.3164 50.5398 34.7027 49.2439 34.8232 47.6165C34.8232 47.5411 34.8383 47.4658 34.8383 47.4055V39.8863C34.8383 39.811 34.8383 39.7356 34.8232 39.6754C34.7027 38.048 33.3164 36.7521 31.6287 36.7521H20.3424C18.6547 36.7521 17.2684 38.048 17.1479 39.6754C17.1479 39.7507 17.1328 39.826 17.1328 39.8863V47.4055C17.1328 47.4808 17.1328 47.5562 17.1479 47.6165C17.2684 49.2589 18.6547 50.5398 20.3424 50.5398ZM30.6191 40.9713V46.3206H21.3671V40.9713H30.6191Z" fill="white"/>
<path d="M42.96 50.5247C43.0353 50.5397 43.1107 50.5398 43.186 50.5398H54.5326C56.2203 50.5398 57.6066 49.2439 57.7271 47.6165C57.7271 47.5411 57.7422 47.4658 57.7422 47.4055V39.8863C57.7422 39.811 57.7422 39.7356 57.7271 39.6754C57.6066 38.048 56.2203 36.7521 54.5326 36.7521H43.186C41.423 36.7521 40.0518 38.1233 40.0518 39.8863V47.4055C40.0518 47.4808 40.0518 47.5562 40.0668 47.6315C40.1874 49.1836 41.423 50.4041 42.96 50.5247ZM53.523 40.9713V46.3206H44.2709V40.9713H53.523Z" fill="white"/>
<path d="M104.289 53.463C103.475 51.9863 102.044 51.0671 100.386 50.8863C100.507 40.5795 95.5192 30.7699 86.9302 24.7575C86.9 24.7425 86.8699 24.7274 86.8548 24.7123C86.8247 24.6973 86.8096 24.6822 86.7795 24.6521C86.7644 24.6521 86.7644 24.637 86.7493 24.637C86.7192 24.6219 86.6891 24.6069 86.6589 24.5918C84.8055 23.5671 82.4397 23.9137 80.9932 25.4658C71.9069 35.1548 70.0233 49.5302 76.0959 61.163C74.0165 63.0165 72.1178 65.0959 70.4302 67.3411V7.82055C70.4302 3.51096 66.9192 0 62.6096 0H12.3411C8.03151 0 4.52055 3.51096 4.52055 7.82055V103.264H2.56164C1.14521 103.264 0 104.41 0 105.826C0 107.243 1.14521 108.388 2.56164 108.388H67.8685C67.9891 108.388 68.1096 108.373 68.2151 108.358C68.6822 108.373 69.1493 108.388 69.6014 108.388C78.4767 108.388 87.0959 105.389 94.0726 99.8589C101.532 93.937 106.595 85.5137 108.327 76.1411C108.342 76.0356 108.358 75.9452 108.358 75.8398C109.97 68.0795 108.523 60.1534 104.289 53.463ZM84.4439 29.2781C91.5562 34.4767 95.5795 42.8247 95.248 51.5192C93.0781 51.9712 90.9534 52.5891 88.9192 53.3726C88.874 49.5452 88.4822 45.7329 87.774 41.9658C87.563 40.8206 86.448 40.0671 85.3028 40.2932C84.1575 40.5192 83.4041 41.6192 83.6302 42.7644C84.4137 46.8781 84.7754 51.0671 84.7 55.2562C83.148 56.0548 81.6562 56.9439 80.2096 57.9384C75.7192 48.5055 77.3165 37.1288 84.4439 29.2781ZM9.64384 7.82055C9.64384 6.35891 10.8795 5.12329 12.3411 5.12329H62.6096C64.0713 5.12329 65.3069 6.35891 65.3069 7.82055V76.9096C65.3069 76.9398 65.3069 76.9699 65.3069 77V103.264H46.3959V90.9836C46.3959 88.7987 44.648 87.0206 42.5082 87.0206H32.0507C29.911 87.0206 28.163 88.7987 28.163 90.9836V103.264H9.64384V7.82055ZM32.3671 91.2398H42.1617V103.249H32.3671V91.2398ZM73.926 102.978C79.5767 97.1768 84.1576 90.5014 87.5781 83.0726C88.0603 82.0178 87.6082 80.7671 86.5535 80.2699C85.4987 79.7877 84.248 80.2398 83.7507 81.2945C80.4356 88.4822 75.9603 94.9165 70.4302 100.492V77.4671C72.7808 72.1329 76.3219 67.5521 80.6767 63.9808C80.6918 63.9658 80.7219 63.9658 80.737 63.9507C80.9329 63.8302 81.1137 63.6795 81.2644 63.5137C86.5384 59.3849 92.9425 56.7178 99.8439 55.9795C99.874 56.0397 99.9041 56.085 99.9343 56.1452C103.521 61.811 104.726 68.5315 103.31 75.1014C103.279 75.2219 103.264 75.3576 103.264 75.4781C100.432 90.1398 88.3466 101.125 73.926 102.978Z" fill="white"/>
<path d="M31.6287 73.5192C33.3616 73.5192 34.8383 72.0576 34.8383 70.3096V62.8507C34.8383 61.1178 33.3767 59.6411 31.6287 59.6411H20.3424C18.6095 59.6411 17.1328 61.1028 17.1328 62.8507V70.3096C17.1328 72.0425 18.5945 73.5192 20.3424 73.5192H31.6287ZM30.6191 63.8754V69.3H21.3671V63.8754H30.6191Z" fill="white"/>
<path d="M42.975 73.5191C43.0504 73.5191 43.1257 73.5342 43.186 73.5342H54.5326C56.2655 73.5342 57.7422 72.0726 57.7422 70.3246V62.8657C57.7422 61.1328 56.2805 59.6561 54.5326 59.6561H43.186C43.1107 59.6561 43.0353 59.6561 42.975 59.6712C41.3477 59.7917 40.0518 61.178 40.0518 62.8657V70.3246C40.0518 72.0123 41.3477 73.3986 42.975 73.5191ZM53.523 63.8753V69.3H44.2709V63.8753H53.523Z" fill="white"/>
</svg>
