<svg width="98" height="118" viewBox="0 0 98 118" fill="none" xmlns="http://www.w3.org/2000/svg">
<path d="M81.1216 49.0979V8.0073C81.1216 3.59193 77.5294 0 73.114 0H8.00729C3.59193 0 0 3.59193 0 8.0073V93.3946C0 97.81 3.59193 101.402 8.00729 101.402H57.1538V114.308C57.1538 117.128 60.2074 118.916 62.6705 117.509L73.7469 111.18C85.9805 118.171 85.341 117.995 86.6526 117.995C88.6889 117.995 90.3399 116.342 90.3399 114.308V89.1816C103.464 76.5732 98.2656 54.6552 81.1216 49.0979ZM8.00729 94.0273C7.65838 94.0273 7.37469 93.7436 7.37469 93.3946V8.0073C7.37469 7.65838 7.65838 7.37469 8.00729 7.37469H73.1143C73.4632 7.37469 73.7469 7.65838 73.7469 8.0073V47.9355C60.531 47.9355 49.7791 58.6873 49.7791 71.9032C49.7791 78.6851 52.611 84.8174 57.1538 89.1816V94.0273H8.00729ZM82.9652 107.954L75.5762 103.731C74.4424 103.084 73.0511 103.084 71.9172 103.731L64.5283 107.954V94.0261C70.408 96.4853 77.0775 96.4885 82.965 94.0261V107.954H82.9652ZM73.7469 88.4962C64.5974 88.4962 57.1538 81.0526 57.1538 71.9032C57.1538 62.7537 64.5974 55.3101 73.7469 55.3101C82.8963 55.3101 90.3399 62.7537 90.3399 71.9032C90.3399 81.0526 82.8963 88.4962 73.7469 88.4962Z" fill="white"/>
<path d="M71.8995 81.3525C70.4591 81.3525 70.2756 81.0116 64.3266 77.0454C62.632 75.9157 62.1741 73.6263 63.3038 71.932C64.4335 70.2374 66.7229 69.7797 68.4172 70.9092L70.8804 72.5512L76.2097 64.5573C77.3392 62.8627 79.6291 62.4051 81.3232 63.5345C83.0177 64.6642 83.4756 66.9536 82.3459 68.648L74.9713 79.71C74.2603 80.7759 73.0909 81.3525 71.8995 81.3525Z" fill="white"/>
<path d="M53.4668 25.8115H22.1244C20.088 25.8115 18.437 24.1604 18.437 22.1241C18.437 20.0878 20.088 18.4368 22.1244 18.4368H53.4668C55.5033 18.4368 57.1541 20.0878 57.1541 22.1241C57.1541 24.1604 55.5031 25.8115 53.4668 25.8115Z" fill="white"/>
<path d="M53.4668 40.5608H22.1244C20.088 40.5608 18.437 38.9098 18.437 36.8735C18.437 34.8372 20.088 33.1862 22.1244 33.1862H53.4668C55.5033 33.1862 57.1541 34.8372 57.1541 36.8735C57.1541 38.9098 55.5031 40.5608 53.4668 40.5608Z" fill="white"/>
<path d="M40.5611 55.3101H22.1244C20.088 55.3101 18.437 53.6591 18.437 51.6228C18.437 49.5864 20.088 47.9354 22.1244 47.9354H40.5611C42.5974 47.9354 44.2484 49.5864 44.2484 51.6228C44.2484 53.6591 42.5974 55.3101 40.5611 55.3101Z" fill="white"/>
</svg>
