<svg width="90" height="97" viewBox="0 0 90 97" fill="none" xmlns="http://www.w3.org/2000/svg">
<path d="M29.8746 27.2443H14.8433C13.2868 27.2443 12.0249 28.5061 12.0249 30.0626C12.0249 31.6191 13.2868 32.881 14.8433 32.881H29.8746C31.4311 32.881 32.693 31.6191 32.693 30.0626C32.693 28.5061 31.4311 27.2443 29.8746 27.2443Z" fill="white"/>
<path d="M29.8746 42.2756H14.8433C13.2868 42.2756 12.0249 43.5375 12.0249 45.094C12.0249 46.6505 13.2868 47.9124 14.8433 47.9124H29.8746C31.4311 47.9124 32.693 46.6505 32.693 45.094C32.693 43.5375 31.4311 42.2756 29.8746 42.2756Z" fill="white"/>
<path d="M29.8746 57.3069H14.8433C13.2868 57.3069 12.0249 58.5688 12.0249 60.1253C12.0249 61.6817 13.2868 62.9436 14.8433 62.9436H29.8746C31.4311 62.9436 32.693 61.6817 32.693 60.1253C32.693 58.5688 31.4311 57.3069 29.8746 57.3069Z" fill="white"/>
<path d="M70.2714 51.6566V25.9253C70.2714 22.2106 68.8391 18.7063 66.2383 16.0559L54.8029 4.23019C54.7974 4.22455 54.7918 4.21873 54.7863 4.21309C52.1534 1.53564 48.4897 0 44.7351 0H8.45511C3.79296 0 0 3.79296 0 8.45511V81.5449C0 86.207 3.79296 90 8.45511 90H52.0146C56.0309 93.8392 61.4713 96.2004 67.453 96.2004C79.8854 96.2004 90 86.1702 90 73.8413C90 62.4589 81.3786 53.0363 70.2714 51.6566ZM5.63674 81.5449V8.45511C5.63674 6.90106 6.90106 5.63674 8.45511 5.63674H44.7351C46.9849 5.63674 49.1802 6.55572 50.76 8.15787L62.1934 19.9817C62.1988 19.9873 62.2043 19.993 62.2095 19.9984C63.7734 21.5893 64.6347 23.694 64.6347 25.9254V51.6594C53.6314 53.0495 45.0939 62.4671 45.0939 73.8415C45.0939 77.6431 46.0488 81.2257 47.7295 84.3634H8.45511C6.90106 84.3633 5.63674 83.0989 5.63674 81.5449ZM67.453 90.5637C58.2323 90.5637 50.7307 83.0621 50.7307 73.8413C50.7307 64.6206 58.2323 57.119 67.453 57.119C76.7773 57.119 84.3633 64.6206 84.3633 73.8413C84.3633 83.0621 76.7773 90.5637 67.453 90.5637Z" fill="white"/>
<path d="M73.9548 67.1669C72.7592 66.1709 70.9819 66.3323 69.9854 67.5279L65.2285 73.2362L64.1495 71.0781C63.4533 69.6858 61.7604 69.1212 60.3681 69.8177C58.9759 70.5136 58.4116 72.2067 59.1078 73.5988L62.114 79.6114C62.5394 80.4621 63.3652 81.0408 64.3099 81.1506C64.4187 81.163 64.5271 81.1694 64.6352 81.1694C65.4658 81.1694 66.2612 80.8018 66.8 80.1553L74.3157 71.1365C75.3121 69.9404 75.1505 68.1633 73.9548 67.1669Z" fill="white"/>
<path d="M44.9058 32.881H47.912C49.4685 32.881 50.7304 31.6191 50.7304 30.0626C50.7304 28.5061 49.4685 27.2443 47.912 27.2443H44.9058C43.3493 27.2443 42.0874 28.5061 42.0874 30.0626C42.0874 31.6191 43.3493 32.881 44.9058 32.881Z" fill="white"/>
<path d="M50.7304 45.094C50.7304 43.5375 49.4685 42.2756 47.912 42.2756H44.9058C43.3493 42.2756 42.0874 43.5375 42.0874 45.094C42.0874 46.6505 43.3493 47.9124 44.9058 47.9124H47.912C49.4685 47.9124 50.7304 46.6505 50.7304 45.094Z" fill="white"/>
</svg>
