<svg width="99" height="99" viewBox="0 0 99 99" fill="none" xmlns="http://www.w3.org/2000/svg">
<path d="M32.8706 15.4688H58.3942C59.4622 15.4688 60.3278 14.6031 60.3278 13.5352C60.3278 12.4672 59.4622 11.6016 58.3942 11.6016H32.8706C31.8027 11.6016 30.937 12.4672 30.937 13.5352C30.937 14.6031 31.8027 15.4688 32.8706 15.4688Z" fill="white"/>
<path d="M58.3945 19.5938H41.5713C40.5034 19.5938 39.6377 20.4594 39.6377 21.5273C39.6377 22.5953 40.5034 23.4609 41.5713 23.4609H58.3945C59.4624 23.4609 60.3281 22.5953 60.3281 21.5273C60.3281 20.4594 59.4624 19.5938 58.3945 19.5938Z" fill="white"/>
<path d="M49.5002 59.5548H32.8711C31.8032 59.5548 30.9375 60.4205 30.9375 61.4884C30.9375 62.5563 31.8032 63.422 32.8711 63.422H49.5002C50.5681 63.422 51.4338 62.5563 51.4338 61.4884C51.4338 60.4205 50.5681 59.5548 49.5002 59.5548Z" fill="white"/>
<path d="M58.3944 27.5861H32.8706C31.8027 27.5861 30.937 28.4517 30.937 29.5197C30.937 30.5876 31.8027 31.4532 32.8706 31.4532H58.3942C59.4622 31.4532 60.3278 30.5876 60.3278 29.5197C60.3278 28.4517 59.4624 27.5861 58.3944 27.5861Z" fill="white"/>
<path d="M32.8707 23.4609C33.9386 23.4609 34.8043 22.5953 34.8043 21.5273C34.8043 20.4594 33.9386 19.5938 32.8707 19.5938H32.8693C31.8014 19.5938 30.9365 20.4594 30.9365 21.5273C30.9365 22.5953 31.8028 23.4609 32.8707 23.4609Z" fill="white"/>
<path d="M32.8706 39.4453H49.4997C50.5676 39.4453 51.4333 38.5796 51.4333 37.5117C51.4333 36.4438 50.5676 35.5781 49.4997 35.5781H32.8706C31.8027 35.5781 30.937 36.4438 30.937 37.5117C30.937 38.5796 31.8027 39.4453 32.8706 39.4453Z" fill="white"/>
<path d="M58.3944 43.5704H32.8706C31.8027 43.5704 30.937 44.4361 30.937 45.504C30.937 46.572 31.8027 47.4376 32.8706 47.4376H58.3942C59.4622 47.4376 60.3278 46.572 60.3278 45.504C60.3278 44.4361 59.4624 43.5704 58.3944 43.5704Z" fill="white"/>
<path d="M58.3944 51.5625H32.8706C31.8027 51.5625 30.937 52.4282 30.937 53.4961C30.937 54.564 31.8027 55.4297 32.8706 55.4297H58.3942C59.4622 55.4297 60.3278 54.564 60.3278 53.4961C60.3278 52.4282 59.4624 51.5625 58.3944 51.5625Z" fill="white"/>
<path d="M77.7306 56.4611C77.0785 56.4611 76.4339 56.4922 75.7968 56.5499V9.66812C75.7968 7.0746 74.7791 4.63577 72.9314 2.80099C71.1105 0.99309 68.7086 0 66.1739 0C66.1511 0 66.1283 0 66.1054 0.000193359H9.67161C9.67044 0.000193359 9.66909 0.000193359 9.66793 0.000193359C4.33703 0.000193359 0 4.33723 0 9.66812V13.5353C0 14.6032 0.865667 15.4689 1.93359 15.4689H15.4685H15.4687V81.34C15.4687 86.6709 19.8057 91.0079 25.1366 91.0079H61.1272C65.0282 95.8763 71.021 99 77.7306 99C89.4585 99 99 89.4585 99 77.7306C99 66.0026 89.4585 56.4611 77.7306 56.4611ZM15.4687 11.6015H3.86717V9.66793C3.86717 6.46978 6.46862 3.86795 9.66677 3.86717H9.66793H9.67161C12.8686 3.86949 15.4687 6.47075 15.4687 9.66812V11.6015ZM30.9374 81.3398C30.9374 84.5383 28.3352 87.1405 25.1366 87.1405C21.9381 87.1405 19.3359 84.5383 19.3359 81.3398V9.66812C19.3359 7.49342 18.6137 5.48442 17.3971 3.86737H66.119C67.6529 3.85924 69.106 4.45228 70.2064 5.54495C71.3174 6.64844 71.9294 8.11275 71.9294 9.66812V57.2653C66.3576 58.8468 61.7102 62.648 59.0071 67.6477C58.8143 67.5833 58.6087 67.5469 58.3945 67.5469H32.8708C31.8029 67.5469 30.9372 68.4126 30.9372 69.4805C30.9372 70.5484 31.8029 71.4141 32.8708 71.4141H57.4184C57.0056 72.7386 56.7194 74.1184 56.5732 75.539H32.8708C32.358 75.539 31.8661 75.7428 31.5035 76.1054C31.141 76.4679 30.9372 76.9598 30.9372 77.4726L30.9374 81.3398ZM32.8663 87.1405C34.0827 85.5237 34.8044 83.5143 34.8044 81.3398V79.4064H56.5268C56.7428 82.1646 57.4882 84.7762 58.6596 87.1407H32.8663V87.1405ZM77.7306 95.1328C68.1349 95.1328 60.3283 87.3262 60.3283 77.7306C60.3283 68.1349 68.1349 60.3283 77.7306 60.3283C87.3262 60.3283 95.1328 68.1349 95.1328 77.7306C95.1328 87.3262 87.3262 95.1328 77.7306 95.1328Z" fill="white"/>
<path d="M89.0552 68.9099C86.7934 66.6484 83.1136 66.6486 80.8523 68.9099L75.5156 74.2469L74.6087 73.34C73.5131 72.2444 72.0565 71.6409 70.5072 71.6409C68.9578 71.6409 67.5012 72.2444 66.4056 73.3398C64.1441 75.6013 64.1441 79.2813 66.4056 81.5429L71.414 86.5513C72.5448 87.682 74.0302 88.2474 75.5156 88.2474C77.0009 88.2474 78.4863 87.682 79.6171 86.5513L89.0554 77.113C90.1509 76.0174 90.7544 74.5609 90.7544 73.0115C90.7542 71.4621 90.1507 70.0055 89.0552 68.9099ZM86.3207 74.3783L76.8824 83.8166C76.1289 84.5703 74.9022 84.5703 74.1485 83.8166L69.1401 78.8082C68.3864 78.0545 68.3864 76.828 69.1401 76.0743C69.5052 75.709 69.9907 75.5081 70.507 75.5081C71.0234 75.5081 71.5088 75.7092 71.8738 76.0743L74.1479 78.3484C74.903 79.1035 76.1273 79.1035 76.8826 78.3484L83.5866 71.6444C84.3401 70.8907 85.5668 70.8907 86.3205 71.6444C86.6857 72.0095 86.8866 72.495 86.8866 73.0113C86.8868 73.5279 86.6859 74.0133 86.3207 74.3783Z" fill="white"/>
</svg>
