<svg width="99" height="99" viewBox="0 0 99 99" fill="none" xmlns="http://www.w3.org/2000/svg">
<path d="M90.2988 0H8.70117C3.90335 0 0 3.90335 0 8.70117V66.9023C0 71.7002 3.90335 75.6035 8.70117 75.6035H34.8047V81.5977H31.9043C23.9079 81.5977 17.4023 88.1032 17.4023 96.0996C17.4023 97.7014 18.7009 99 20.3027 99H78.5039C80.1057 99 81.4043 97.7014 81.4043 96.0996C81.4043 88.1032 74.8987 81.5977 66.9023 81.5977H64.002V75.6035H90.2988C95.0967 75.6035 99 71.7002 99 66.9023V8.70117C99 3.90335 95.0967 0 90.2988 0ZM66.9023 87.3984C70.6837 87.3984 73.9095 89.823 75.1066 93.1992H23.7001C24.8971 89.823 28.123 87.3984 31.9043 87.3984C36.1955 87.3984 62.4363 87.3984 66.9023 87.3984ZM40.6055 81.5977V75.6035H58.2012V81.5977H40.6055ZM93.1992 66.9023C93.1992 68.5016 91.8981 69.8027 90.2988 69.8027C78.8055 69.8027 11.1779 69.8027 8.70117 69.8027C7.1019 69.8027 5.80078 68.5016 5.80078 66.9023V8.70117C5.80078 7.1019 7.1019 5.80078 8.70117 5.80078H90.2988C91.8981 5.80078 93.1992 7.1019 93.1992 8.70117V66.9023Z" fill="white"/>
<path d="M33.9552 12.6445C32.8227 11.5116 30.9861 11.5116 29.8536 12.6443L20.3028 22.1951L16.5528 18.4451C15.4203 17.3124 13.5838 17.3124 12.4511 18.4451C11.3184 19.5778 11.3184 21.4141 12.4511 22.5468L18.2519 28.3476C18.8182 28.9141 19.5605 29.1972 20.3028 29.1972C21.0451 29.1972 21.7874 28.9141 22.3536 28.3478L33.9552 16.7462C35.0879 15.6135 35.0879 13.7772 33.9552 12.6445Z" fill="white"/>
<path d="M33.9552 30.0468C32.8227 28.9139 30.9861 28.9139 29.8536 30.0466L20.3028 39.5974L16.5528 35.8474C15.4203 34.7147 13.5838 34.7147 12.4511 35.8474C11.3184 36.9801 11.3184 38.8165 12.4511 39.9492L18.2519 45.7499C18.8182 46.3165 19.5605 46.5996 20.3028 46.5996C21.0451 46.5996 21.7874 46.3165 22.3536 45.7501L33.9552 34.1486C35.0879 33.0159 35.0879 31.1795 33.9552 30.0468Z" fill="white"/>
<path d="M84.498 17.5957H43.5059C41.9041 17.5957 40.6055 18.8943 40.6055 20.4961C40.6055 22.0979 41.9041 23.3965 43.5059 23.3965H84.498C86.0998 23.3965 87.3984 22.0979 87.3984 20.4961C87.3984 18.8943 86.0998 17.5957 84.498 17.5957Z" fill="white"/>
<path d="M84.498 34.998H43.5059C41.9041 34.998 40.6055 36.2966 40.6055 37.8984C40.6055 39.5002 41.9041 40.7988 43.5059 40.7988H84.498C86.0998 40.7988 87.3984 39.5002 87.3984 37.8984C87.3984 36.2966 86.0998 34.998 84.498 34.998Z" fill="white"/>
<path d="M84.498 52.4004H43.5059C41.9041 52.4004 40.6055 53.699 40.6055 55.3008C40.6055 56.9026 41.9041 58.2012 43.5059 58.2012H84.498C86.0998 58.2012 87.3984 56.9026 87.3984 55.3008C87.3984 53.699 86.0998 52.4004 84.498 52.4004Z" fill="white"/>
<path d="M33.9552 47.4492C32.8227 46.3163 30.9861 46.3163 29.8536 47.449L20.3028 56.9998L16.5528 53.2498C15.4203 52.1171 13.5838 52.1171 12.4511 53.2498C11.3184 54.3825 11.3184 56.2188 12.4511 57.3515L18.2519 63.1523C18.8182 63.7188 19.5605 64.0019 20.3028 64.0019C21.0451 64.0019 21.7874 63.7188 22.3536 63.1525L33.9552 51.5509C35.0879 50.4182 35.0879 48.5819 33.9552 47.4492Z" fill="white"/>
</svg>
