<svg width="95" height="95" viewBox="0 0 95 95" fill="none" xmlns="http://www.w3.org/2000/svg">
<path d="M84.7645 0H10.2362C4.59156 0 0 4.59156 0 10.2362V64.8312C0 70.4752 4.59156 75.0668 10.2362 75.0668H33.8558L41.6777 90.7114C43.0404 93.4366 45.1625 95 47.5 95C49.8375 95 51.9596 93.4366 53.3223 90.7114L61.1449 75.0668H84.7645C90.4084 75.0668 95 70.4752 95 64.8312V10.2362C95 4.59156 90.4084 0 84.7645 0V0ZM89.4336 64.8312C89.4336 67.4057 87.3389 69.5004 84.7645 69.5004H59.425C58.3704 69.5004 57.4072 70.0961 56.9353 71.0391L48.3437 88.2225C47.9972 88.9146 47.6718 89.2553 47.5 89.3858C47.3282 89.2553 47.0028 88.9146 46.6563 88.2225L38.0647 71.0391C37.5935 70.0961 36.6296 69.5004 35.5757 69.5004H10.2362C7.66106 69.5004 5.56641 67.4057 5.56641 64.8312V10.2362C5.56641 7.66106 7.66106 5.56641 10.2362 5.56641H84.7645C87.3389 5.56641 89.4336 7.66106 89.4336 10.2362V64.8312Z" fill="white"/>
<path d="M47.5002 48.6328C42.6782 48.6328 38.7549 52.5561 38.7549 57.3782C38.7549 62.2002 42.6782 66.1235 47.5002 66.1235C52.3223 66.1235 56.2463 62.2009 56.2463 57.3782C56.2463 52.5561 52.3223 48.6328 47.5002 48.6328V48.6328ZM47.5002 60.5571C45.7477 60.5571 44.3213 59.1314 44.3213 57.3782C44.3213 55.6249 45.7477 54.1992 47.5002 54.1992C49.2535 54.1992 50.6799 55.6249 50.6799 57.3782C50.6799 59.1314 49.2535 60.5571 47.5002 60.5571V60.5571Z" fill="white"/>
<path d="M47.5002 11.9243C42.6782 11.9243 38.7549 15.8476 38.7549 20.6697V33.5297C38.7549 38.3517 42.6782 42.275 47.5002 42.275C52.3223 42.275 56.2463 38.3517 56.2463 33.5297V20.6697C56.2463 15.8476 52.3223 11.9243 47.5002 11.9243V11.9243ZM50.6799 33.5289C50.6799 35.2822 49.2535 36.7086 47.5002 36.7086C45.7477 36.7086 44.3213 35.2822 44.3213 33.5289V20.6697C44.3213 18.9171 45.7477 17.4907 47.5002 17.4907C49.2535 17.4907 50.6799 18.9171 50.6799 20.6697V33.5289Z" fill="white"/>
</svg>
