<svg width="91" height="63" viewBox="0 0 91 63" fill="none" xmlns="http://www.w3.org/2000/svg">
<path d="M34.2898 29.9657L31.4483 28.1058L32.5849 26.5558C31.8616 25.8325 31.2416 24.9542 30.8283 24.0242L30.6733 24.0759L28.865 24.5409L28.1934 21.1827L30.105 20.8727C30.105 20.7694 30.105 20.666 30.105 20.6144C30.105 19.5294 30.3116 18.4961 30.6733 17.5661L29.0717 16.6362L30.9316 13.7946L32.3782 14.8796C33.1532 14.1046 34.0315 13.4329 35.0648 13.0196L35.0131 12.968L34.5481 11.1597L37.9064 10.488L38.1647 12.348C38.2164 12.348 38.3197 12.348 38.3713 12.348C39.508 12.348 40.5929 12.5546 41.5746 12.968L41.6262 12.9163L42.5562 11.3147L45.3978 13.1746L44.2612 14.7246C45.0878 15.5512 45.7078 16.4812 46.1728 17.5661L46.2761 17.5145L48.0844 17.0495L48.756 20.4077L46.7927 20.7177H46.7411C46.7411 21.906 46.4827 23.0426 46.0178 24.0759H46.0694L47.671 25.0059L45.8111 27.8475L44.2095 26.6592C43.3828 27.4341 42.4012 28.0541 41.3163 28.4674V28.5191L41.7812 30.3274L38.423 30.999L38.113 29.0357V28.9841C37.0797 28.9324 36.0464 28.7258 35.1165 28.3641V28.4158L34.2898 29.9657ZM38.4747 15.3962C41.3679 15.3962 43.6928 17.7211 43.6928 20.666C43.6928 23.5593 41.3679 25.8842 38.423 25.8842C35.4781 25.8842 33.2049 23.5076 33.2049 20.6144C33.2049 17.7211 35.5814 15.3962 38.4747 15.3962Z" fill="white"/>
<path d="M48.3426 27.0207C47.4126 28.519 46.121 29.8106 44.6744 30.9472C44.4161 31.1539 44.1061 31.3606 43.8994 31.6189C44.9844 31.6706 46.0693 31.6189 47.1543 31.6189C48.6526 31.6189 50.0992 31.6706 51.5975 31.6189C52.0108 31.2572 52.2691 30.8439 52.5791 30.4306C53.6124 28.9323 54.5941 27.3307 55.1107 25.5741C55.524 24.2308 55.6274 22.8875 55.6274 21.4926C55.679 20.3043 55.5757 19.116 55.2657 17.9277C53.6124 12.3995 52.0625 6.81973 50.4092 1.23991C50.3059 0.878259 50.2542 0.413274 50.0475 0.103284C48.2909 0.0516195 46.586 0.103284 44.8294 0.103284C46.4827 6.40641 48.2393 12.6579 49.9442 18.961C50.3059 21.6992 49.8925 24.6441 48.3426 27.0207Z" fill="white"/>
<path d="M57.1255 21.6476C57.1772 22.3192 56.9705 22.9909 56.9188 23.6625C56.5572 25.9358 55.7822 28.1574 54.5423 30.069C54.3356 30.4306 54.0773 30.7406 53.8706 31.1023C54.4906 31.2056 55.1106 30.999 55.6789 30.844C57.1255 30.4306 58.3655 29.5523 59.3471 28.4674C60.3804 27.4857 61.0004 26.2458 61.672 25.0058C62.292 23.8175 62.447 22.4226 62.5503 21.0793C62.602 19.581 62.4987 18.0311 62.137 16.5844C60.897 12.6579 59.6571 8.67971 58.4171 4.75317C57.9005 3.15156 57.4355 1.54995 56.8672 0C55.1622 0.0516649 53.4573 0 51.7007 0C53.2506 5.83814 54.8522 11.6763 56.4539 17.5661C56.9188 18.9094 57.1255 20.3043 57.1255 21.6476Z" fill="white"/>
<path d="M69.0084 22.5777C69.0084 21.9577 69.1633 21.3377 69.1117 20.6661C69.1633 17.7728 68.6984 14.8796 67.7167 12.193C66.8901 9.76476 66.0634 7.33651 65.2368 4.90826C64.6685 3.30665 64.1518 1.65337 63.5319 0.0517578C61.7753 0.0517578 60.0187 0.0517578 58.262 0.0517578C58.572 1.24005 58.9854 2.37668 59.347 3.56497C60.432 7.07819 61.5686 10.5914 62.6536 14.1046C63.1702 15.7062 63.5319 17.3595 63.6352 19.0128C63.6352 20.0977 63.7385 21.1827 63.5319 22.216C63.3252 24.0243 62.7052 25.7292 61.7753 27.2792C60.5353 29.2424 58.6754 30.7407 56.5571 31.6707C55.8855 31.9807 55.2138 32.239 54.5422 32.4457C53.8189 32.6523 53.1472 32.859 52.3722 32.859C47.2058 32.859 41.9876 32.859 36.8211 32.859C33.9795 32.239 31.1896 30.9474 29.123 28.8808C27.5731 27.3825 26.6431 25.3676 26.2815 23.2493C26.0748 22.216 26.1265 21.1827 26.1781 20.1494C26.4365 17.7728 27.4181 15.4479 28.813 13.5363C29.2264 12.968 29.743 12.5547 30.208 12.038C30.8796 11.3664 31.7063 10.9014 32.4812 10.4364C33.9279 9.60977 35.5295 9.14478 37.1828 8.98979C38.7327 8.93812 40.2827 9.14478 41.7809 9.60977C43.6409 10.2814 45.3975 11.3147 46.7408 12.813C46.7408 12.1414 46.4308 11.5214 46.2758 10.9014C45.7591 8.88646 45.1392 6.92319 44.6225 4.90826C44.5708 4.7016 44.3125 4.64994 44.1575 4.54661C42.0909 3.8233 39.8693 3.40998 37.6477 3.46164C35.6845 3.40998 33.7729 3.87496 31.9646 4.59827C30.363 5.26992 28.8647 6.19988 27.4697 7.23318C25.7648 8.62814 24.2149 10.3331 23.0782 12.2447C21.7349 14.6213 20.805 17.3078 20.8566 20.0977C20.805 23.7143 21.6833 27.3825 23.6465 30.3791C25.4032 33.1173 28.0897 35.2356 31.0346 36.5789C32.5846 37.3022 34.2895 37.8705 35.9945 38.1288C41.4193 38.1288 46.8958 38.1288 52.3206 38.1288C55.9888 37.8188 59.502 36.4239 62.3952 34.1506C64.1518 32.704 65.7018 30.9474 66.8901 28.9841C68.0784 27.0725 68.6984 24.8509 69.0084 22.5777Z" fill="white"/>
<circle cx="38.5264" cy="20.821" r="5.68314" fill="#004C9A"/>
<path d="M42.5355 20.9876L42.3288 20.946L41.4608 20.6127L40.7169 20.1127L40.4275 19.9461L40.2209 19.8211L39.8075 19.4878L39.4769 19.2795C39.4769 19.2795 40.2622 18.5712 40.2622 18.3212L39.8489 17.9046C39.8489 17.9046 39.5182 17.6546 39.3116 17.738C39.1049 17.8213 39.2289 17.738 39.0636 17.9046C39.0636 17.9046 38.9396 18.1129 38.8156 18.4046C38.6916 18.6962 38.6089 18.6545 38.6089 18.6545C38.6089 18.6545 38.4436 18.6545 38.1129 18.5712L37.8236 18.5295C37.8236 18.5295 37.6583 18.5712 37.5756 18.6545C37.493 18.7379 37.0796 19.0295 37.0796 19.0295L36.625 19.3628L36.377 19.6128L36.1703 19.8211L36.0463 20.0294H35.4264V20.4877L36.253 20.8627C36.253 20.8627 36.129 21.5293 35.2197 21.8626C35.2197 21.8626 35.013 21.9042 34.6411 22.4458L34.3931 22.6542L34.7651 23.4041L34.8064 23.3624L35.1784 23.1541L41.3368 23.1124L41.9981 23.3624L42.6595 21.8209L42.5355 20.9876ZM36.873 19.9877C37.0383 19.8211 37.4103 19.7378 37.4103 19.7378C37.0796 20.4877 36.5423 20.3627 36.5423 20.3627C36.5423 20.3627 36.6663 20.1127 36.873 19.9877ZM36.749 22.9458V22.6958C36.749 22.6958 37.2036 22.6542 37.8649 22.9041L36.749 22.9458ZM38.4023 21.4876C38.2783 21.7376 37.7823 21.8209 37.7823 21.8209V21.9459L38.3196 22.1125C38.1543 22.2375 37.741 22.3209 37.741 22.3209H36.9143L36.5837 22.2375C36.5837 22.2375 36.377 22.7375 36.0463 22.8208C35.6744 22.9041 35.3437 22.7375 35.3437 22.7375C35.3437 22.7375 35.633 22.4042 35.8397 22.2792C36.0463 22.1542 36.4183 22.1125 36.4183 22.1125C36.9143 21.8209 37.4103 21.4459 37.4103 21.4459L37.741 21.5709L37.6996 21.2793C36.997 21.1126 36.4597 20.7377 36.4597 20.7377L36.6663 20.446C36.6663 20.446 37.617 20.946 37.7823 20.9876C37.9476 21.0293 38.4023 20.9876 38.4023 20.9876V21.4876ZM39.7662 22.0292C39.5182 22.0292 39.4769 22.8625 39.4769 22.8625L39.2289 22.1125C39.2702 21.8626 39.1049 21.4876 39.1049 21.4876C38.8982 21.071 38.5263 20.6127 38.5263 20.6127C38.5263 20.6127 38.4849 20.6127 38.8156 20.2794C39.1462 19.9461 39.3942 20.1544 39.3942 20.1544L40.3035 20.6543L40.2622 21.2793C40.7582 21.2793 41.2955 21.5709 41.2955 21.5709C41.2955 21.5709 41.0475 21.8209 40.8408 21.9876C40.6755 22.1125 40.0142 22.0292 39.7662 22.0292ZM42.2461 22.8625H40.0969L40.0555 22.3625C40.0555 22.3625 40.2209 22.2792 41.0062 22.2375C41.7915 22.1959 41.5435 21.4043 41.5435 21.4043C41.5435 21.4043 41.2542 21.1126 40.6342 21.1126L40.5515 20.8627C40.5515 20.8627 41.8328 20.6543 42.1635 21.4043C42.4941 22.1125 42.4941 22.2792 42.4941 22.2792L42.2461 22.8625Z" fill="white"/>
<path d="M1.08398 54C0.759766 53.9727 0.460938 54.043 0.1875 54.2109C0.15625 54.2344 0.126953 54.2344 0.0996094 54.2109C0.0722656 54.1914 0.0800781 54.1328 0.123047 54.0352C0.173828 53.918 0.287109 53.7559 0.462891 53.5488C0.642578 53.3379 0.849609 53.166 1.08398 53.0332C1.20117 53.3691 1.20117 53.6914 1.08398 54ZM3.49805 53C3.39258 52.9844 3.32031 52.9805 3.28125 52.9883C3.12891 53.0156 2.97266 53.1113 2.8125 53.2754C2.66406 53.4316 2.48438 53.582 2.27344 53.7266C2.06641 53.875 1.89453 53.9551 1.75781 53.9668C1.62109 53.9785 1.49805 53.9707 1.38867 53.9434C1.2832 53.9199 1.18359 53.8965 1.08984 53.873C1.03516 53.7012 1.01172 53.5352 1.01953 53.375C1.02734 53.2188 1.05078 53.0625 1.08984 52.9062C1.30078 52.7969 1.47461 52.7422 1.61133 52.7422C1.74805 52.7383 1.87305 52.7598 1.98633 52.8066C2.0957 52.8535 2.20312 52.877 2.30859 52.877C2.48438 52.877 2.60547 52.8594 2.67188 52.8242C2.74219 52.7891 2.82617 52.7285 2.92383 52.6426C2.9707 52.6035 3.01562 52.5625 3.05859 52.5195C3.10156 52.4766 3.16016 52.4238 3.23438 52.3613C3.3125 52.2949 3.40039 52.252 3.49805 52.2324C3.52148 52.3379 3.54297 52.4219 3.5625 52.4844C3.58203 52.5586 3.5918 52.6172 3.5918 52.6602C3.5918 52.7344 3.57227 52.8184 3.5332 52.9121C3.5332 52.9316 3.52148 52.9609 3.49805 53ZM1.13086 57.7461C1.13086 57.7695 1.1875 57.8281 1.30078 57.9219C1.41797 58.0156 1.50391 58.0859 1.55859 58.1328C1.61719 58.1836 1.66211 58.209 1.69336 58.209C1.81836 58.209 1.98633 57.9961 2.19727 57.5703C2.2832 57.6328 2.38281 57.7207 2.49609 57.834C2.60938 57.9473 2.6875 58.0039 2.73047 58.0039C2.79688 58.0039 2.90039 57.9043 3.04102 57.7051C3.18555 57.502 3.25781 57.3262 3.25781 57.1777C3.25 57.0527 3.17773 56.918 3.04102 56.7734C2.9082 56.6328 2.79297 56.5625 2.69531 56.5625C2.66406 56.5625 2.59961 56.6426 2.50195 56.8027C2.4082 56.9629 2.32227 57.1074 2.24414 57.2363C2.17773 57.1426 2.08008 57.0332 1.95117 56.9082C1.82617 56.7871 1.73047 56.7402 1.66406 56.7676C1.62891 56.7676 1.53125 56.918 1.37109 57.2188C1.21094 57.5195 1.13086 57.6953 1.13086 57.7461ZM3.50391 52.2324C3.71484 52.3223 3.85352 52.3262 3.91992 52.2441C3.92773 52.2363 4.00391 52.123 4.14844 51.9043C4.1875 51.8418 4.21484 51.8105 4.23047 51.8105C4.25781 51.8105 4.27148 51.8242 4.27148 51.8516C4.27539 51.8828 4.26758 51.9355 4.24805 52.0098C4.23242 52.0801 4.19727 52.1992 4.14258 52.3672C4.0918 52.5312 4.00977 52.6855 3.89648 52.8301C3.78711 52.9707 3.65625 53.0273 3.50391 53C3.45312 52.8633 3.42969 52.7324 3.43359 52.6074C3.4375 52.4824 3.46094 52.3574 3.50391 52.2324ZM4.07812 48.7871C4.07812 48.7012 4.15039 48.5156 4.29492 48.2305C4.44336 47.9414 4.53906 47.7969 4.58203 47.7969C4.66797 47.7617 4.79297 47.8281 4.95703 47.9961C5.12109 48.1602 5.20898 48.2891 5.2207 48.3828C5.2207 48.5078 5.15234 48.6875 5.01562 48.9219C4.87891 49.1562 4.7793 49.2734 4.7168 49.2734C4.69336 49.2617 4.61133 49.2109 4.4707 49.1211C4.33398 49.0273 4.23242 48.957 4.16602 48.9102C4.10742 48.8711 4.07812 48.8301 4.07812 48.7871ZM5.97656 49.7012C5.96875 49.9824 5.96289 50.2363 5.95898 50.4629C5.95508 50.6895 5.94336 50.8809 5.92383 51.0371C5.89258 51.373 5.82812 51.6719 5.73047 51.9336C5.63281 52.1914 5.55469 52.3633 5.49609 52.4492C5.44141 52.5352 5.39648 52.5977 5.36133 52.6367C5.31836 52.6758 5.28516 52.6895 5.26172 52.6777C5.23828 52.6621 5.23047 52.6387 5.23828 52.6074C5.23828 52.5996 5.26172 52.4824 5.30859 52.2559C5.35547 52.0254 5.38477 51.8027 5.39648 51.5879C5.4082 51.373 5.41016 51.0703 5.40234 50.6797C5.39453 50.2852 5.4043 49.9844 5.43164 49.7773C5.44727 49.6562 5.47266 49.5312 5.50781 49.4023C5.54688 49.2734 5.58984 49.1465 5.63672 49.0215C5.68359 48.8965 5.73242 48.7793 5.7832 48.6699C5.83789 48.5566 5.88672 48.457 5.92969 48.3711C5.96484 48.3164 5.99609 48.2949 6.02344 48.3066C6.05078 48.3184 6.0625 48.3398 6.05859 48.3711C6.05078 48.4023 6.04102 48.4766 6.0293 48.5938C6.02148 48.707 6.01367 48.8359 6.00586 48.9805C5.99805 49.1211 5.99023 49.2598 5.98242 49.3965C5.97852 49.5332 5.97656 49.6348 5.97656 49.7012ZM8.625 51.6387C8.57812 51.7715 8.48828 51.8887 8.35547 51.9902C8.22266 52.0918 8.06641 52.1777 7.88672 52.248C7.72656 52.3184 7.58203 52.3945 7.45312 52.4766C7.19141 52.6562 6.97266 52.8574 6.79688 53.0801C6.76562 53.1113 6.61328 53.3262 6.33984 53.7246C6.00781 54.248 5.82031 54.5391 5.77734 54.5977C5.49609 54.9531 5.13281 55.2773 4.6875 55.5703C4.57812 55.6406 4.45898 55.709 4.33008 55.7754C4.15039 55.8652 4.03711 55.9199 3.99023 55.9395C3.86914 56.0059 3.80078 56.0137 3.78516 55.9629C3.76172 55.9043 3.94531 55.7324 4.33594 55.4473C4.64062 55.2324 4.88477 55.0332 5.06836 54.8496C5.32227 54.5918 5.54102 54.3184 5.72461 54.0293C5.80664 53.8926 5.87695 53.7773 5.93555 53.6836C5.99023 53.5898 6.0332 53.5195 6.06445 53.4727C6.26367 53.1523 6.42773 52.9004 6.55664 52.7168C6.71289 52.4863 6.85742 52.3047 6.99023 52.1719C7.11523 52.0469 7.21094 51.957 7.27734 51.9023C7.39453 51.7969 7.52148 51.709 7.6582 51.6387L7.77539 51.5801L8.625 51.6387ZM9.49219 52C9.26953 52.1562 9.08594 52.248 8.94141 52.2754C8.875 52.291 8.80273 52.3008 8.72461 52.3047C8.65039 52.3086 8.57422 52.3105 8.49609 52.3105C8.43359 52.3184 8.36523 52.3242 8.29102 52.3281C8.2168 52.3359 8.04688 52.4336 7.78125 52.6211C7.67969 52.4609 7.67969 52.2969 7.78125 52.1289C7.80859 52.1094 7.82812 52.0938 7.83984 52.082C7.82031 52.0664 7.80273 52.0469 7.78711 52.0234C7.74805 51.9648 7.72852 51.9082 7.72852 51.8535C7.72852 51.7754 7.75 51.668 7.79297 51.5312C7.83984 51.4023 7.92578 51.2461 8.05078 51.0625C8.14062 50.9375 8.24023 50.8184 8.34961 50.7051C8.49805 50.5605 8.63086 50.4883 8.74805 50.4883C8.86133 50.4883 8.9668 50.5449 9.06445 50.6582C9.1582 50.7715 9.20508 50.9277 9.20508 51.127C9.20508 51.2285 9.18945 51.332 9.1582 51.4375C9.13867 51.5 9.12305 51.5469 9.11133 51.5781C9.09961 51.6055 9.08789 51.6309 9.07617 51.6543C9.13477 51.6543 9.19141 51.6445 9.24609 51.625C9.30469 51.6055 9.38672 51.5664 9.49219 51.5078C9.50391 51.5469 9.51758 51.5977 9.5332 51.6602C9.54492 51.7188 9.55078 51.7598 9.55078 51.7832C9.55078 51.8105 9.54688 51.8477 9.53906 51.8945C9.53125 51.9219 9.51562 51.957 9.49219 52ZM8.89453 51.4375C8.89453 51.3516 8.84766 51.2812 8.75391 51.2266C8.66016 51.1758 8.55859 51.1504 8.44922 51.1504C8.38281 51.1504 8.31055 51.1816 8.23242 51.2441C8.14648 51.3105 8.0957 51.3789 8.08008 51.4492C8.04883 51.5391 8.10742 51.6035 8.25586 51.6426L8.49609 51.7012C8.57812 51.7012 8.66602 51.6797 8.75977 51.6367C8.84961 51.5898 8.89453 51.5234 8.89453 51.4375ZM7.97461 47.957C7.97461 47.8711 8.04688 47.6855 8.19141 47.4004C8.33984 47.1113 8.43555 46.9668 8.47852 46.9668C8.56445 46.9316 8.68945 46.998 8.85352 47.166C9.01758 47.3301 9.10547 47.459 9.11719 47.5527C9.11719 47.6777 9.04883 47.8574 8.91211 48.0918C8.77539 48.3262 8.67578 48.4434 8.61328 48.4434C8.58984 48.4316 8.50781 48.3809 8.36719 48.291C8.23047 48.1973 8.12891 48.127 8.0625 48.0801C8.00391 48.041 7.97461 48 7.97461 47.957ZM9.49219 52C9.46484 51.918 9.44531 51.8359 9.43359 51.7539C9.41797 51.6719 9.4375 51.5898 9.49219 51.5078C9.60938 51.4453 9.75586 51.3457 9.93164 51.209C9.87305 51.1777 9.81641 51.1465 9.76172 51.1152L9.60938 51.0215C9.48047 50.9277 9.41602 50.8438 9.41602 50.7695C9.41602 50.7266 9.45703 50.6348 9.53906 50.4941C9.59766 50.3809 9.71289 50.2168 9.88477 50.002C10.041 49.8145 10.1523 49.6934 10.2188 49.6387C10.3555 49.5293 10.4883 49.4746 10.6172 49.4746C10.7305 49.4746 10.8164 49.5098 10.875 49.5801C10.9336 49.6582 10.959 49.7266 10.9512 49.7852C10.9512 49.8438 10.9316 49.8945 10.8926 49.9375C10.8848 49.957 10.8652 49.9727 10.834 49.9844C10.7871 49.9844 10.7344 49.9629 10.6758 49.9199C10.6055 49.877 10.5332 49.8555 10.459 49.8555C10.373 49.8555 10.291 49.8887 10.2129 49.9551C10.1348 50.0332 10.082 50.1191 10.0547 50.2129C10.0352 50.2559 10.0508 50.3008 10.1016 50.3477C10.1914 50.457 10.3594 50.5117 10.6055 50.5117C10.7656 50.5117 10.9297 50.4727 11.0977 50.3945C11.1875 50.3516 11.291 50.291 11.4082 50.2129C11.4785 50.166 11.5312 50.1387 11.5664 50.1309C11.6016 50.1191 11.6289 50.1348 11.6484 50.1777C11.6523 50.2129 11.6426 50.248 11.6191 50.2832C11.5918 50.3145 11.5488 50.3477 11.4902 50.3828L10.9746 50.7695L10.3301 51.2793L9.49219 52ZM14.209 50.959C14.2051 51.0645 14.1641 51.2559 14.0859 51.5332C14.0117 51.8105 13.9121 52.1133 13.7871 52.4414C13.666 52.7695 13.5586 53.0176 13.4648 53.1855C13.3711 53.3535 13.2676 53.4824 13.1543 53.5723C13.0449 53.6582 12.8652 53.7383 12.6152 53.8125C12.3691 53.8828 12.1699 53.9316 12.0176 53.959C11.8691 53.9824 11.7754 53.9941 11.7363 53.9941C11.6973 53.9902 11.6738 53.9746 11.666 53.9473C11.6582 53.9199 11.6699 53.8848 11.7012 53.8418C11.7441 53.7754 11.8516 53.6895 12.0234 53.584C12.1992 53.4746 12.4023 53.3398 12.6328 53.1797C12.8633 53.0156 13.0273 52.873 13.125 52.752C13.2227 52.6309 13.332 52.4492 13.4531 52.207C13.5781 51.9648 13.6895 51.7207 13.7871 51.4746C13.8887 51.2285 13.9609 51.0605 14.0039 50.9707C14.0469 50.8809 14.0938 50.8379 14.1445 50.8418C14.1875 50.8496 14.209 50.8887 14.209 50.959ZM13.7168 48.4688C13.7168 48.3828 13.7891 48.1973 13.9336 47.9121C14.082 47.623 14.1777 47.4785 14.2207 47.4785C14.3066 47.4434 14.4316 47.5098 14.5957 47.6777C14.7598 47.8418 14.8477 47.9707 14.8594 48.0645C14.8594 48.1895 14.791 48.3691 14.6543 48.6035C14.5176 48.8379 14.418 48.9551 14.3555 48.9551C14.332 48.9434 14.25 48.8926 14.1094 48.8027C13.9727 48.709 13.8711 48.6387 13.8047 48.5918C13.7461 48.5527 13.7168 48.5117 13.7168 48.4688ZM20.7246 49.2422C20.709 49.3398 20.6836 49.4355 20.6484 49.5293C20.6172 49.6191 20.5625 49.7461 20.4844 49.9102C20.4102 50.0742 20.3652 50.168 20.3496 50.1914C20.2871 50.2891 20.2324 50.3379 20.1855 50.3379C20.1504 50.3145 20.1191 50.293 20.0918 50.2734C20.0645 50.25 20.0391 50.2383 20.0156 50.2383C19.918 50.2383 19.7891 50.2793 19.6289 50.3613C19.4688 50.4395 19.293 50.5664 19.1016 50.7422C18.9102 50.918 18.7598 51.082 18.6504 51.2344C18.5449 51.3867 18.4922 51.4922 18.4922 51.5508C18.4922 51.6367 18.5195 51.7031 18.5742 51.75C18.6211 51.7852 18.7051 51.8262 18.8262 51.873C18.9473 51.9199 19.0273 51.959 19.0664 51.9902C19.1953 52.0801 19.2598 52.2559 19.2598 52.5176C19.2598 52.8809 19.1914 53.2969 19.0547 53.7656C18.918 54.2305 18.7383 54.6348 18.5156 54.9785C18.4023 55.1387 18.2695 55.2988 18.1172 55.459C17.9648 55.6191 17.8008 55.7559 17.625 55.8691C17.2891 56.0918 16.9023 56.2031 16.4648 56.2031C15.9688 56.1953 15.5918 56.0273 15.334 55.6992C15.2168 55.5312 15.1348 55.3535 15.0879 55.166C15.0449 54.9785 15.0234 54.8008 15.0234 54.6328C15.0234 54.418 15.0391 54.207 15.0703 54C15.1016 53.7969 15.1504 53.5918 15.2168 53.3848C15.3184 53.0488 15.4414 52.7246 15.5859 52.4121C15.7305 52.0996 15.8477 51.8477 15.9375 51.6562L16.2129 51.0703C16.2441 51.0039 16.2773 50.9395 16.3125 50.877C16.3477 50.8145 16.3789 50.7832 16.4062 50.7832C16.4453 50.7832 16.4648 50.8145 16.4648 50.877C16.4688 50.9395 16.4629 50.9863 16.4473 51.0176C16.4043 51.1309 16.3672 51.2266 16.3359 51.3047C16.3047 51.3789 16.2578 51.4883 16.1953 51.6328C16.1328 51.7773 16.0645 51.9336 15.9902 52.1016C15.9199 52.2695 15.8613 52.4082 15.8145 52.5176C15.584 53.127 15.4688 53.584 15.4688 53.8887C15.4688 54.209 15.582 54.4629 15.8086 54.6504C16.0391 54.8379 16.3613 54.9316 16.7754 54.9316C17.1191 54.9316 17.4512 54.8516 17.7715 54.6914C18.0098 54.5703 18.209 54.4238 18.3691 54.252C18.5293 54.0801 18.6504 53.9199 18.7324 53.7715C18.8184 53.6191 18.8613 53.4824 18.8613 53.3613C18.8613 53.2871 18.8047 53.2324 18.6914 53.1973C18.582 53.1621 18.502 53.1387 18.4512 53.127C18.4043 53.1152 18.3496 53.0938 18.2871 53.0625C18.166 53.0039 18.0742 52.9316 18.0117 52.8457C17.9492 52.7559 17.918 52.6348 17.918 52.4824C17.918 52.252 17.9922 51.959 18.1406 51.6035C18.293 51.248 18.5059 50.8984 18.7793 50.5547C19.002 50.2734 19.2051 50.0449 19.3887 49.8691C19.4863 49.7793 19.6113 49.6777 19.7637 49.5645C19.916 49.4473 20.0645 49.3477 20.209 49.2656C20.3848 49.1641 20.5234 49.1055 20.625 49.0898C20.668 49.0898 20.6973 49.1074 20.7129 49.1426C20.7285 49.1777 20.7324 49.2109 20.7246 49.2422ZM21.8438 50.7012C21.8359 50.9824 21.8301 51.2363 21.8262 51.4629C21.8223 51.6895 21.8105 51.8809 21.791 52.0371C21.7598 52.373 21.6953 52.6719 21.5977 52.9336C21.5 53.1914 21.4219 53.3633 21.3633 53.4492C21.3086 53.5352 21.2637 53.5977 21.2285 53.6367C21.1855 53.6758 21.1523 53.6895 21.1289 53.6777C21.1055 53.6621 21.0977 53.6387 21.1055 53.6074C21.1055 53.5996 21.1289 53.4824 21.1758 53.2559C21.2227 53.0254 21.252 52.8027 21.2637 52.5879C21.2754 52.373 21.2773 52.0703 21.2695 51.6797C21.2617 51.2852 21.2715 50.9844 21.2988 50.7773C21.3145 50.6562 21.3398 50.5312 21.375 50.4023C21.4141 50.2734 21.457 50.1465 21.5039 50.0215C21.5508 49.8965 21.5996 49.7793 21.6504 49.6699C21.7051 49.5566 21.7539 49.457 21.7969 49.3711C21.832 49.3164 21.8633 49.2949 21.8906 49.3066C21.918 49.3184 21.9297 49.3398 21.9258 49.3711C21.918 49.4023 21.9082 49.4766 21.8965 49.5938C21.8887 49.707 21.8809 49.8359 21.873 49.9805C21.8652 50.1211 21.8574 50.2598 21.8496 50.3965C21.8457 50.5332 21.8438 50.6348 21.8438 50.7012ZM23.0039 53.1973C23.1445 53.0332 23.2891 52.9004 23.4375 52.7988C23.6445 52.6621 23.8477 52.5938 24.0469 52.5938C24.1523 52.5938 24.2598 52.6074 24.3691 52.6348C24.4668 52.6582 24.5273 52.6699 24.5508 52.6699C24.7461 52.6699 24.9336 52.6133 25.1133 52.5C25.2891 52.3906 25.377 52.291 25.377 52.2012C25.377 52.1621 25.3262 52.0977 25.2246 52.0078C25.2051 51.9922 25.1758 51.9688 25.1367 51.9375C25.0859 51.9688 25.0547 51.9844 25.043 51.9844C24.957 52.0234 24.8809 52.043 24.8145 52.043C24.6699 52.043 24.5547 52.0078 24.4688 51.9375C24.3789 51.8672 24.334 51.7559 24.334 51.6035C24.334 51.5879 24.4375 51.3359 24.6445 50.8477C24.6953 50.7266 24.7617 50.6113 24.8438 50.502C24.9141 50.4199 24.9883 50.3789 25.0664 50.3789C25.2695 50.3789 25.4668 50.4766 25.6582 50.6719C25.8457 50.8711 25.9395 51.1289 25.9395 51.4453C25.9395 51.6992 25.8652 52.0039 25.7168 52.3594C25.5801 52.6641 25.4414 52.918 25.3008 53.1211C25.1328 53.3555 24.959 53.5488 24.7793 53.7012C24.5332 53.9004 24.2852 54 24.0352 54C23.9375 54 23.8223 53.9766 23.6895 53.9297C23.5566 53.8789 23.4395 53.8535 23.3379 53.8535C23.1973 53.8535 23.0625 53.8906 22.9336 53.9648C22.8438 54.0156 22.748 54.0898 22.6465 54.1875C22.5332 54.2891 22.4531 54.3223 22.4062 54.2871C22.3633 54.2637 22.3418 54.2324 22.3418 54.1934C22.3418 54.1387 22.375 54.0625 22.4414 53.9648C22.5156 53.8477 22.6055 53.7188 22.7109 53.5781C22.8555 53.3789 22.9531 53.252 23.0039 53.1973ZM24.7266 47.8535C24.7266 47.7676 24.7988 47.582 24.9434 47.2969C25.0918 47.0078 25.1875 46.8633 25.2305 46.8633C25.3164 46.8281 25.4414 46.8945 25.6055 47.0625C25.7695 47.2266 25.8574 47.3555 25.8691 47.4492C25.8691 47.5742 25.8008 47.7539 25.6641 47.9883C25.5273 48.2227 25.4277 48.3398 25.3652 48.3398C25.3418 48.3281 25.2598 48.2773 25.1191 48.1875C24.9824 48.0938 24.8809 48.0234 24.8145 47.9766C24.7559 47.9375 24.7266 47.8965 24.7266 47.8535ZM29.6016 51.334C29.5391 51.4395 29.4961 51.5156 29.4727 51.5625C29.4062 51.6719 29.3379 51.7598 29.2676 51.8262C29.1855 51.9082 29.0781 51.9805 28.9453 52.043C28.6602 52.1797 28.4551 52.3125 28.3301 52.4414C28.248 52.5234 28.1523 52.6738 28.043 52.8926C27.8438 53.2949 27.6484 53.5625 27.457 53.6953C27.2656 53.832 26.9219 53.9297 26.4258 53.9883C26.3867 53.9961 26.3398 54 26.2852 54H26.1504C26.0801 54 26.0449 53.9922 26.0449 53.9766C26.0449 53.8867 26.1641 53.7656 26.4023 53.6133C26.5898 53.5 26.7305 53.416 26.8242 53.3613C27.1055 53.2012 27.3125 53.0742 27.4453 52.9805C27.6328 52.8438 27.7559 52.7109 27.8145 52.582C28.0098 52.1836 28.1719 51.9062 28.3008 51.75C28.4453 51.5781 28.6113 51.4453 28.7988 51.3516C29.0996 51.1836 29.2734 51.084 29.3203 51.0527L29.7891 51.1641L29.6016 51.334ZM29.9297 51.1738C29.8828 51.2559 29.832 51.3379 29.7773 51.4199C29.7266 51.498 29.6738 51.5742 29.6191 51.6484C29.5645 51.7227 29.5098 51.791 29.4551 51.8535C29.4043 51.9121 29.3594 51.9609 29.3203 52C29.2969 51.8789 29.2812 51.7598 29.2734 51.6426C29.2656 51.5254 29.2812 51.4062 29.3203 51.2852C29.3789 51.25 29.4238 51.2188 29.4551 51.1914C29.5332 51.1211 29.707 50.8828 29.9766 50.4766C29.9453 50.4453 29.8555 50.4023 29.707 50.3477C29.5586 50.2891 29.418 50.2559 29.2852 50.248C29.1641 50.2402 29.0645 50.2637 28.9863 50.3184C28.9043 50.3691 28.832 50.4434 28.7695 50.541C28.7031 50.6348 28.6465 50.6777 28.5996 50.6699C28.584 50.6621 28.582 50.6309 28.5938 50.5762C28.6055 50.5176 28.623 50.4609 28.6465 50.4062C28.7441 50.1797 28.8574 50.0117 28.9863 49.9023C29.1113 49.7891 29.2617 49.7324 29.4375 49.7324C29.5664 49.7324 29.7266 49.7637 29.918 49.8262C30.0391 49.8691 30.1426 49.8906 30.2285 49.8906C30.4082 49.8906 30.5859 49.8262 30.7617 49.6973C30.8008 49.6973 30.8145 49.7227 30.8027 49.7734C30.791 49.8242 30.7734 49.8848 30.75 49.9551C30.7305 50.0215 30.7168 50.0664 30.709 50.0898C30.6699 50.2109 30.6387 50.2812 30.6152 50.3008C30.5918 50.3203 30.5234 50.3711 30.4102 50.4531C30.3477 50.5 30.293 50.5547 30.2461 50.6172C30.2031 50.6758 30.1582 50.748 30.1113 50.834C30.0645 50.916 30.0039 51.0293 29.9297 51.1738ZM33.4277 52.3535C33.291 52.7324 33.1641 53.0117 33.0469 53.1914C32.9297 53.3711 32.8379 53.4824 32.7715 53.5254C32.7051 53.5684 32.6055 53.6152 32.4727 53.666C32.3398 53.7129 32.1367 53.7812 31.8633 53.8711C31.5938 53.957 31.4336 54 31.3828 54C31.3516 54 31.3359 53.9922 31.3359 53.9766C31.3047 53.9336 31.4668 53.793 31.8223 53.5547C32.1777 53.3164 32.4062 53.1602 32.5078 53.0859C32.6133 53.0117 32.7188 52.9043 32.8242 52.7637C32.9336 52.6191 33.0137 52.457 33.0645 52.2773C33.0098 52.2695 32.9531 52.2812 32.8945 52.3125C32.8398 52.3398 32.7852 52.3535 32.7305 52.3535C32.5859 52.3496 32.4648 52.3027 32.3672 52.2129C32.2695 52.123 32.2285 52.0234 32.2441 51.9141C32.2598 51.8477 32.2812 51.7715 32.3086 51.6855C32.3398 51.5957 32.4023 51.4551 32.4961 51.2637C32.5898 51.0723 32.6836 50.9141 32.7773 50.7891C32.875 50.6641 32.9707 50.6016 33.0645 50.6016C33.2246 50.6016 33.3574 50.6699 33.4629 50.8066C33.5723 50.9434 33.627 51.1074 33.627 51.2988C33.627 51.3965 33.6211 51.4941 33.6094 51.5918C33.5977 51.6855 33.584 51.7656 33.5684 51.832C33.5566 51.8945 33.5371 51.9766 33.5098 52.0781C33.4863 52.1758 33.459 52.2676 33.4277 52.3535ZM37.9336 53.1914C37.9336 53.125 37.793 53.0273 37.5117 52.8984C37.2266 52.7656 37.084 52.6035 37.084 52.4121C37.084 52.2754 37.1133 52.1211 37.1719 51.9492C37.2344 51.7734 37.3086 51.6074 37.3945 51.4512C37.4102 51.4238 37.4336 51.4043 37.4648 51.3926C37.5 51.3809 37.5332 51.375 37.5645 51.375C37.5996 51.375 37.6309 51.3809 37.6582 51.3926C37.6855 51.4043 37.7012 51.4238 37.7051 51.4512C37.7051 51.5059 37.748 51.5605 37.834 51.6152C37.9238 51.6699 38.0137 51.7305 38.1035 51.7969C38.1934 51.8594 38.2578 51.9316 38.2969 52.0137C38.3359 52.1035 38.3555 52.2363 38.3555 52.4121C38.3555 52.6699 38.3223 52.9336 38.2559 53.2031C38.1895 53.4648 38.0664 53.7891 37.8867 54.1758C37.6016 54.7734 37.2148 55.25 36.7266 55.6055C36.5469 55.7188 36.3711 55.8047 36.1992 55.8633C36.0117 55.9258 35.8105 55.957 35.5957 55.957C35.0918 55.957 34.7051 55.7695 34.4355 55.3945C34.2051 55.0742 34.0898 54.6641 34.0898 54.1641C34.0898 53.9414 34.1367 53.6504 34.2305 53.291C34.3242 52.9434 34.4219 52.6426 34.5234 52.3887C34.6328 52.127 34.7266 51.9062 34.8047 51.7266C34.8281 51.6836 34.8613 51.6191 34.9043 51.5332C34.9473 51.4434 35.002 51.3281 35.0684 51.1875C35.1152 51.1016 35.1562 51.0234 35.1914 50.9531C35.2305 50.8828 35.2617 50.8203 35.2852 50.7656C35.3438 50.6602 35.3887 50.6094 35.4199 50.6133C35.4629 50.6211 35.4746 50.666 35.4551 50.748C35.4355 50.8457 35.4102 50.9297 35.3789 51C35.1016 51.6406 34.9102 52.0879 34.8047 52.3418C34.6211 52.8066 34.5293 53.166 34.5293 53.4199C34.5293 53.9004 34.6777 54.2441 34.9746 54.4512C35.1934 54.5957 35.4766 54.668 35.8242 54.668C36.4492 54.668 36.9727 54.4922 37.3945 54.1406C37.7539 53.8398 37.9336 53.5234 37.9336 53.1914ZM39.1113 51C39.0801 51.0039 39.0508 51 39.0234 50.9883C38.9961 50.9766 38.9668 50.9609 38.9355 50.9414C38.8691 50.8984 38.8145 50.8711 38.7715 50.8594C38.5801 50.8203 38.3906 50.8633 38.2031 50.9883C38.0195 51.1094 37.8555 51.2871 37.7109 51.5215C37.6953 51.541 37.6699 51.5527 37.6348 51.5566C37.5996 51.5645 37.5625 51.5664 37.5234 51.5625C37.4844 51.5625 37.4492 51.5566 37.418 51.5449C37.3867 51.5371 37.3691 51.5293 37.3652 51.5215C37.5059 51.2988 37.6699 51.082 37.8574 50.8711C38.0488 50.6602 38.2344 50.5098 38.4141 50.4199C38.5938 50.3262 38.8262 50.2637 39.1113 50.2324L39.1758 50.3906C39.1953 50.4492 39.2051 50.5098 39.2051 50.5723C39.2051 50.6426 39.1953 50.7168 39.1758 50.7949C39.1367 50.916 39.1152 50.9844 39.1113 51ZM36.8086 47.6719C36.8086 47.5859 36.8828 47.4004 37.0312 47.1152C37.1758 46.8262 37.2695 46.6816 37.3125 46.6816C37.3984 46.6465 37.5234 46.7129 37.6875 46.8809C37.8516 47.0449 37.9395 47.1738 37.9512 47.2676C37.9512 47.3926 37.8828 47.5723 37.7461 47.8066C37.6094 48.041 37.5098 48.1582 37.4473 48.1582C37.4238 48.1465 37.3438 48.0957 37.207 48.0059C37.0664 47.9121 36.9629 47.8418 36.8965 47.7949C36.8379 47.7559 36.8086 47.7148 36.8086 47.6719ZM39.1172 50.2324C39.2734 50.2871 39.3887 50.3105 39.4629 50.3027C39.5371 50.2949 39.6016 50.2715 39.6562 50.2324C39.7148 50.1934 39.7441 50.125 39.7441 50.0273C39.7441 49.9609 39.7168 49.8906 39.6621 49.8164C39.6074 49.75 39.5508 49.7168 39.4922 49.7168C39.4297 49.748 39.3984 49.7637 39.3984 49.7637C39.375 49.7793 39.3145 49.7871 39.2168 49.7871C39.0996 49.7871 38.9844 49.7656 38.8711 49.7227C38.7656 49.6758 38.7129 49.6016 38.7129 49.5C38.7129 49.4258 38.7324 49.3379 38.7715 49.2363C38.8145 49.123 38.8867 48.9629 38.9883 48.7559C39.0547 48.6035 39.1289 48.4648 39.2109 48.3398C39.2852 48.2188 39.3535 48.1582 39.416 48.1582C39.5879 48.1582 39.7559 48.2422 39.9199 48.4102C40.1387 48.6172 40.248 48.8809 40.248 49.2012C40.248 49.3574 40.2285 49.5156 40.1895 49.6758C40.1504 49.8594 40.0898 50.0332 40.0078 50.1973C39.8867 50.4277 39.7578 50.625 39.6211 50.7891C39.4844 50.9453 39.3652 51.0234 39.2637 51.0234L39.1172 51C39.0625 50.8398 39.0332 50.6973 39.0293 50.5723C39.0254 50.4434 39.0547 50.3301 39.1172 50.2324ZM39.7676 44.6133C39.7676 44.5273 39.8398 44.3418 39.9844 44.0566C40.1328 43.7676 40.2285 43.623 40.2715 43.623C40.3574 43.5879 40.4824 43.6543 40.6465 43.8223C40.8105 43.9863 40.8984 44.1152 40.9102 44.209C40.9102 44.334 40.8418 44.5137 40.7051 44.748C40.5684 44.9824 40.4688 45.0996 40.4062 45.0996C40.3828 45.0879 40.3008 45.0371 40.1602 44.9473C40.0234 44.8535 39.9219 44.7832 39.8555 44.7363C39.7969 44.6973 39.7676 44.6562 39.7676 44.6133ZM47.2969 50.0625C47.2578 50.2812 47.1973 50.4727 47.1152 50.6367C47.0371 50.7969 46.9551 50.8984 46.8691 50.9414C46.7871 50.9805 46.6816 51.0078 46.5527 51.0234C46.4902 51.1211 46.4121 51.2051 46.3184 51.2754C46.2246 51.3418 46.0938 51.3867 45.9258 51.4102C45.918 51.4102 45.9062 51.4414 45.8906 51.5039C45.8086 52.2148 45.6562 52.8555 45.4336 53.4258C45.2617 53.8633 45.041 54.2734 44.7715 54.6562C44.1387 55.5117 43.3789 55.9434 42.4922 55.9512C42.0312 55.9316 41.666 55.7793 41.3965 55.4941C41.127 55.2129 40.9844 54.8203 40.9688 54.3164C40.9648 53.5195 41.2266 52.6543 41.7539 51.7207C41.8555 51.5332 41.916 51.4746 41.9355 51.5449C41.9551 51.6113 41.9531 51.6797 41.9297 51.75C41.582 52.4375 41.4043 53.0312 41.3965 53.5312C41.416 53.9141 41.5527 54.2031 41.8066 54.3984C42.0645 54.5977 42.3945 54.6992 42.7969 54.7031C43.3047 54.7031 43.793 54.5684 44.2617 54.2988C44.6094 54.0645 44.8887 53.7734 45.0996 53.4258C45.4082 52.9375 45.5527 52.2656 45.5332 51.4102V51.041C45.5488 50.7949 45.6719 50.6699 45.9023 50.666C45.9609 50.666 46.0195 50.6719 46.0781 50.6836C46.1367 50.6953 46.1797 50.7012 46.207 50.7012C46.3477 50.7012 46.459 50.6582 46.541 50.5723C46.627 50.4824 46.6914 50.3965 46.7344 50.3145C46.75 50.291 46.8086 50.2832 46.9102 50.291C46.9766 50.291 47.0293 50.2617 47.0684 50.2031C47.1074 50.1445 47.1387 50.082 47.1621 50.0156C47.2012 49.9219 47.2422 49.8828 47.2852 49.8984C47.3086 49.9062 47.3125 49.9609 47.2969 50.0625ZM44.6719 47.625C44.6719 47.5781 44.7539 47.4004 44.918 47.0918C45.0859 46.7832 45.1895 46.6289 45.2285 46.6289C45.291 46.6289 45.3887 46.6855 45.5215 46.7988C45.6582 46.9121 45.75 47.0195 45.7969 47.1211C45.8828 46.9805 45.9648 46.8438 46.043 46.7109C46.1562 46.5234 46.2266 46.4297 46.2539 46.4297C46.3477 46.4297 46.4668 46.4961 46.6113 46.6289C46.752 46.7773 46.8223 46.9141 46.8223 47.0391C46.8223 47.1836 46.752 47.3633 46.6113 47.5781C46.4668 47.7852 46.3633 47.8887 46.3008 47.8887C46.25 47.8887 46.1777 47.8398 46.084 47.7422C45.9551 47.6055 45.8477 47.5059 45.7617 47.4434C45.5469 47.8809 45.3789 48.0996 45.2578 48.0996C45.2305 48.0996 45.125 48.0273 44.9414 47.8828C44.7617 47.7383 44.6719 47.6523 44.6719 47.625ZM45.2051 46.1719C45.2051 46.1328 45.2773 45.9609 45.4219 45.6562C45.5703 45.3477 45.666 45.1934 45.709 45.1934C45.8184 45.1934 45.9395 45.2598 46.0723 45.3926C46.2051 45.541 46.2715 45.6836 46.2715 45.8203C46.2715 45.9492 46.209 46.127 46.084 46.3535C45.9629 46.5801 45.873 46.6934 45.8145 46.6934C45.7793 46.6934 45.7012 46.6406 45.5801 46.5352C45.459 46.4258 45.3652 46.3477 45.2988 46.3008C45.2363 46.2539 45.2051 46.2109 45.2051 46.1719ZM49.9395 50.959C49.9355 51.0645 49.8945 51.2559 49.8164 51.5332C49.7422 51.8105 49.6426 52.1133 49.5176 52.4414C49.3965 52.7695 49.2891 53.0176 49.1953 53.1855C49.1016 53.3535 48.998 53.4824 48.8848 53.5723C48.7754 53.6582 48.5957 53.7383 48.3457 53.8125C48.0996 53.8828 47.9004 53.9316 47.748 53.959C47.5996 53.9824 47.5059 53.9941 47.4668 53.9941C47.4277 53.9902 47.4043 53.9746 47.3965 53.9473C47.3887 53.9199 47.4004 53.8848 47.4316 53.8418C47.4746 53.7754 47.582 53.6895 47.7539 53.584C47.9297 53.4746 48.1328 53.3398 48.3633 53.1797C48.5938 53.0156 48.7578 52.873 48.8555 52.752C48.9531 52.6309 49.0625 52.4492 49.1836 52.207C49.3086 51.9648 49.4199 51.7207 49.5176 51.4746C49.6191 51.2285 49.6914 51.0605 49.7344 50.9707C49.7773 50.8809 49.8242 50.8379 49.875 50.8418C49.918 50.8496 49.9395 50.8887 49.9395 50.959ZM49.4473 48.4688C49.4473 48.3828 49.5195 48.1973 49.6641 47.9121C49.8125 47.623 49.9082 47.4785 49.9512 47.4785C50.0371 47.4434 50.1621 47.5098 50.3262 47.6777C50.4902 47.8418 50.5781 47.9707 50.5898 48.0645C50.5898 48.1895 50.5215 48.3691 50.3848 48.6035C50.248 48.8379 50.1484 48.9551 50.0859 48.9551C50.0625 48.9434 49.9805 48.8926 49.8398 48.8027C49.7031 48.709 49.6016 48.6387 49.5352 48.5918C49.4766 48.5527 49.4473 48.5117 49.4473 48.4688ZM52.3184 52.3535C52.1816 52.7324 52.0547 53.0117 51.9375 53.1914C51.8203 53.3711 51.7285 53.4824 51.6621 53.5254C51.5957 53.5684 51.4961 53.6152 51.3633 53.666C51.2305 53.7129 51.0273 53.7812 50.7539 53.8711C50.4844 53.957 50.3242 54 50.2734 54C50.2422 54 50.2266 53.9922 50.2266 53.9766C50.1953 53.9336 50.3574 53.793 50.7129 53.5547C51.0684 53.3164 51.2969 53.1602 51.3984 53.0859C51.5039 53.0117 51.6094 52.9043 51.7148 52.7637C51.8242 52.6191 51.9043 52.457 51.9551 52.2773C51.9004 52.2695 51.8438 52.2812 51.7852 52.3125C51.7305 52.3398 51.6758 52.3535 51.6211 52.3535C51.4766 52.3496 51.3555 52.3027 51.2578 52.2129C51.1602 52.123 51.1191 52.0234 51.1348 51.9141C51.1504 51.8477 51.1719 51.7715 51.1992 51.6855C51.2305 51.5957 51.293 51.4551 51.3867 51.2637C51.4805 51.0723 51.5742 50.9141 51.668 50.7891C51.7656 50.6641 51.8613 50.6016 51.9551 50.6016C52.1152 50.6016 52.248 50.6699 52.3535 50.8066C52.4629 50.9434 52.5176 51.1074 52.5176 51.2988C52.5176 51.3965 52.5117 51.4941 52.5 51.5918C52.4883 51.6855 52.4746 51.7656 52.459 51.832C52.4473 51.8945 52.4277 51.9766 52.4004 52.0781C52.377 52.1758 52.3496 52.2676 52.3184 52.3535ZM52.0312 51.666C52.0312 51.6543 52.0312 51.6406 52.0312 51.625C52.0312 51.6094 52.0312 51.5957 52.0312 51.584C52.0586 51.4473 52.1777 51.2871 52.3887 51.1035C52.5645 51.0098 52.7012 50.873 52.7988 50.6934C52.8691 50.5566 52.9805 50.3535 53.1328 50.084C53.1719 50.0254 53.2402 49.9375 53.3379 49.8203C53.4551 49.6875 53.5586 49.584 53.6484 49.5098C53.6758 49.4824 53.748 49.3828 53.8652 49.2109C53.8887 49.168 53.9336 49.1035 54 49.0176C54.0625 49.0137 54.1641 49.1094 54.3047 49.3047C54.4414 49.5 54.5098 49.6836 54.5098 49.8555C54.5098 50.0156 54.4688 50.168 54.3867 50.3125C54.3008 50.4609 54.2031 50.5684 54.0938 50.6348C54.0234 50.6816 53.9473 50.7051 53.8652 50.7051C53.7949 50.7012 53.7363 50.6934 53.6895 50.6816C53.6113 50.6738 53.5547 50.6699 53.5195 50.6699C53.4531 50.6699 53.3926 50.6777 53.3379 50.6934C53.1465 50.7754 52.9629 50.9922 52.7871 51.3438C52.7402 51.4375 52.7012 51.5117 52.6699 51.5664C52.6387 51.6211 52.6172 51.6582 52.6055 51.6777C52.5273 51.8105 52.4551 51.918 52.3887 52C52.3105 52.1094 52.2422 52.1836 52.1836 52.2227C52.1172 52.2695 52.0469 52.3047 51.9727 52.3281L52.0312 51.666ZM56.7012 50.7012C56.6934 50.9824 56.6875 51.2363 56.6836 51.4629C56.6797 51.6895 56.668 51.8809 56.6484 52.0371C56.6172 52.373 56.5527 52.6719 56.4551 52.9336C56.3574 53.1914 56.2793 53.3633 56.2207 53.4492C56.166 53.5352 56.1211 53.5977 56.0859 53.6367C56.043 53.6758 56.0098 53.6895 55.9863 53.6777C55.9629 53.6621 55.9551 53.6387 55.9629 53.6074C55.9629 53.5996 55.9863 53.4824 56.0332 53.2559C56.0801 53.0254 56.1094 52.8027 56.1211 52.5879C56.1328 52.373 56.1348 52.0703 56.127 51.6797C56.1191 51.2852 56.1289 50.9844 56.1562 50.7773C56.1719 50.6562 56.1973 50.5312 56.2324 50.4023C56.2715 50.2734 56.3145 50.1465 56.3613 50.0215C56.4082 49.8965 56.457 49.7793 56.5078 49.6699C56.5625 49.5566 56.6113 49.457 56.6543 49.3711C56.6895 49.3164 56.7207 49.2949 56.748 49.3066C56.7754 49.3184 56.7871 49.3398 56.7832 49.3711C56.7754 49.4023 56.7656 49.4766 56.7539 49.5938C56.7461 49.707 56.7383 49.8359 56.7305 49.9805C56.7227 50.1211 56.7148 50.2598 56.707 50.3965C56.7031 50.5332 56.7012 50.6348 56.7012 50.7012ZM57.7734 47.3848C58.0625 47.3848 58.3301 47.332 58.5762 47.2266C58.7207 47.1641 58.8535 47.0918 58.9746 47.0098C59.0957 46.9277 59.1758 46.875 59.2148 46.8516C59.2578 46.8242 59.293 46.8105 59.3203 46.8105C59.3438 46.8105 59.3535 46.832 59.3496 46.875C59.3496 46.9141 59.332 46.9609 59.2969 47.0156C59.2266 47.1445 59.123 47.2832 58.9863 47.4316C58.8535 47.5762 58.6953 47.709 58.5117 47.8301C58.2266 48.0137 57.9707 48.1445 57.7441 48.2227C57.5176 48.3008 57.2344 48.334 56.8945 48.3223C56.7578 48.3105 56.6367 48.2891 56.5312 48.2578C56.4297 48.2266 56.3027 48.2012 56.1504 48.1816C56.002 48.1582 55.8691 48.1641 55.752 48.1992C55.6387 48.2344 55.541 48.2793 55.459 48.334C55.3809 48.3887 55.3066 48.4453 55.2363 48.5039C55.1699 48.5586 55.1191 48.5742 55.084 48.5508C55.0645 48.5234 55.0801 48.4629 55.1309 48.3691C55.1855 48.2754 55.2559 48.1797 55.3418 48.082C55.5293 47.8555 55.7422 47.666 55.9805 47.5137C56.2539 47.3379 56.4902 47.25 56.6895 47.25C56.7559 47.25 56.9531 47.2812 57.2812 47.3438C57.4414 47.3711 57.6055 47.3848 57.7734 47.3848ZM64.7695 52.1777C64.5664 52.459 64.3633 52.6719 64.1602 52.8164C63.8438 53.0547 63.5371 53.2363 63.2402 53.3613C62.9473 53.4824 62.6133 53.5918 62.2383 53.6895C61.8672 53.7871 61.4453 53.8594 60.9727 53.9062C60.5 53.9531 60.0547 53.9766 59.6367 53.9766C59.375 53.9766 59.0762 53.9609 58.7402 53.9297C58.4082 53.8945 58.1719 53.8301 58.0312 53.7363C57.7852 53.584 57.6621 53.3047 57.6621 52.8984C57.6621 52.6758 57.6836 52.4102 57.7266 52.1016C57.7656 51.8086 57.8125 51.6621 57.8672 51.6621C57.9102 51.6621 57.9395 51.752 57.9551 51.9316C57.998 52.2051 58.1348 52.3906 58.3652 52.4883C58.5957 52.5859 58.9473 52.6523 59.4199 52.6875C59.8965 52.7227 60.2969 52.7402 60.6211 52.7402C60.8828 52.7402 61.1816 52.7285 61.5176 52.7051C61.8496 52.6816 62.1797 52.6406 62.5078 52.582C62.8125 52.5312 63.1289 52.4551 63.457 52.3535C63.7891 52.248 64.0918 52.1113 64.3652 51.9434C64.6387 51.7754 64.8145 51.6484 64.8926 51.5625C64.9707 51.5352 64.998 51.6172 64.9746 51.8086C65.0254 51.8164 65.0859 51.8125 65.1562 51.7969C65.1992 51.8203 65.2266 51.8594 65.2383 51.9141C65.2539 51.9648 65.2578 52.0195 65.25 52.0781C65.2461 52.1328 65.2344 52.1836 65.2148 52.2305C65.1953 52.2734 65.1758 52.2969 65.1562 52.3008L64.7695 52.1777ZM59.9297 50.3086C59.9297 50.2578 60.0098 50.082 60.1699 49.7812C60.3301 49.4805 60.4277 49.3301 60.4629 49.3301C60.5293 49.3027 60.625 49.3516 60.75 49.4766C60.8789 49.5977 60.9766 49.7051 61.043 49.7988C61.1211 49.6699 61.207 49.5254 61.3008 49.3652C61.3984 49.2051 61.4629 49.125 61.4941 49.125C61.5918 49.125 61.707 49.1973 61.8398 49.3418C61.9766 49.4824 62.0488 49.6152 62.0566 49.7402C62.0566 49.8887 61.9844 50.0645 61.8398 50.2676C61.6992 50.4668 61.5957 50.5664 61.5293 50.5664C61.4863 50.5664 61.4082 50.5098 61.2949 50.3965C61.1816 50.2832 61.082 50.1953 60.9961 50.1328C60.7852 50.5586 60.6172 50.7715 60.4922 50.7715C60.4609 50.7715 60.416 50.7461 60.3574 50.6953C60.3027 50.6484 60.2168 50.5781 60.0996 50.4844C59.9863 50.3906 59.9297 50.332 59.9297 50.3086ZM68.3496 50.5078C68.3887 50.5352 68.4121 50.5762 68.4199 50.6309C68.4316 50.6855 68.4082 50.8086 68.3496 51C68.2207 51.0898 68.0762 51.1504 67.916 51.1816C67.834 51.291 67.6816 51.3906 67.459 51.4805C67.4082 51.5 67.3418 51.5527 67.2598 51.6387C67.1777 51.7246 67.0742 51.7812 66.9492 51.8086C66.8984 51.8242 66.8457 51.8301 66.791 51.8262C66.7402 51.8223 66.6875 51.8262 66.6328 51.8379C66.5156 51.8809 66.4043 51.9551 66.2988 52.0605C66.1934 52.1699 66.0996 52.2715 66.0176 52.3652C65.8887 52.4902 65.7695 52.5586 65.6602 52.5703C65.5508 52.582 65.3828 52.5527 65.1562 52.4824C65.1133 52.4355 65.0898 52.3652 65.0859 52.2715C65.0781 52.1777 65.1016 52.0801 65.1562 51.9785C65.4727 51.9199 65.7441 51.8164 65.9707 51.668C66.2012 51.5234 66.4121 51.377 66.6035 51.2285C66.666 51.1777 66.7305 51.1387 66.7969 51.1113C66.8633 51.084 66.9434 51.084 67.0371 51.1113C67.1582 51.1426 67.2949 51.0684 67.4473 50.8887C67.5176 50.8066 67.5684 50.7656 67.5996 50.7656C67.6309 50.7617 67.6602 50.7656 67.6875 50.7773C67.7695 50.8047 67.8418 50.7754 67.9043 50.6895C67.9668 50.5996 68.0156 50.5391 68.0508 50.5078C68.0859 50.4766 68.1289 50.4766 68.1797 50.5078C68.2344 50.5469 68.291 50.5469 68.3496 50.5078ZM65.5957 48.0176C65.5957 47.9746 65.6719 47.8105 65.8242 47.5254C65.9766 47.2402 66.0723 47.0977 66.1113 47.0977C66.166 47.0977 66.2559 47.1504 66.3809 47.2559C66.5059 47.3613 66.5898 47.4609 66.6328 47.5547C66.7148 47.4258 66.791 47.2988 66.8613 47.1738C66.9668 47.002 67.0312 46.916 67.0547 46.916C67.1406 46.916 67.252 46.9766 67.3887 47.0977C67.5176 47.2344 67.582 47.3613 67.582 47.4785C67.582 47.6113 67.5176 47.7773 67.3887 47.9766C67.252 48.168 67.1562 48.2637 67.1016 48.2637C67.0547 48.2637 66.9883 48.2188 66.9023 48.1289C66.7812 48 66.6816 47.9082 66.6035 47.8535C66.4043 48.2559 66.248 48.457 66.1348 48.457C66.1113 48.457 66.0156 48.3906 65.8477 48.2578C65.6797 48.125 65.5957 48.0449 65.5957 48.0176ZM66.0879 46.6758C66.0879 46.6406 66.1543 46.4824 66.2871 46.2012C66.4238 45.916 66.5117 45.7734 66.5508 45.7734C66.6523 45.7734 66.7656 45.834 66.8906 45.9551C67.0117 46.0957 67.0723 46.2285 67.0723 46.3535C67.0723 46.4707 67.0156 46.6348 66.9023 46.8457C66.7891 47.0527 66.7051 47.1562 66.6504 47.1562C66.6191 47.1562 66.5469 47.1074 66.4336 47.0098C66.3203 46.9121 66.2344 46.8418 66.1758 46.7988C66.1172 46.7559 66.0879 46.7148 66.0879 46.6758ZM68.3555 50.5078C68.4258 50.4805 68.5059 50.3848 68.5957 50.2207C68.627 50.166 68.6562 50.1094 68.6836 50.0508C68.7109 49.9922 68.7402 49.9297 68.7715 49.8633C68.8301 49.7461 68.8945 49.6504 68.9648 49.5762C69.0312 49.5098 69.1035 49.4766 69.1816 49.4766C69.2559 49.4766 69.3242 49.5 69.3867 49.5469C69.3984 49.5586 69.4121 49.5684 69.4277 49.5762C69.4434 49.584 69.457 49.5938 69.4688 49.6055C69.5 49.6055 69.5371 49.5566 69.5801 49.459C69.6309 49.3574 69.6621 49.3066 69.6738 49.3066C69.752 49.3066 69.8086 49.3496 69.8438 49.4355C69.875 49.5254 69.8906 49.5996 69.8906 49.6582C69.8906 49.8184 69.8359 49.9668 69.7266 50.1035C69.6211 50.2441 69.5078 50.3145 69.3867 50.3145C69.3164 50.3145 69.248 50.2969 69.1816 50.2617C69.1191 50.2266 69.0684 50.209 69.0293 50.209C68.9551 50.209 68.8945 50.2402 68.8477 50.3027C68.7852 50.4199 68.7363 50.5039 68.7012 50.5547C68.6309 50.6953 68.5156 50.8438 68.3555 51C68.3086 50.9297 68.2832 50.8496 68.2793 50.7598C68.2754 50.6699 68.3008 50.5859 68.3555 50.5078ZM69.4629 52.4707C69.3613 52.5996 69.2344 52.834 69.082 53.1738C68.9336 53.5176 68.8633 53.7598 68.8711 53.9004C69.1211 54.041 69.2461 54.1895 69.2461 54.3457C69.2461 54.459 69.2109 54.5645 69.1406 54.6621C69.0742 54.7598 68.9922 54.8086 68.8945 54.8086C68.793 54.8086 68.7188 54.7617 68.6719 54.668C68.6289 54.5703 68.6074 54.4629 68.6074 54.3457C68.6074 54.0723 68.7266 53.6895 68.9648 53.1973C69.2031 52.7051 69.3691 52.4629 69.4629 52.4707ZM72.2988 52.043C72.2988 52.2109 72.2695 52.4004 72.2109 52.6113C72.1562 52.8184 72.084 53.0059 71.9941 53.1738C71.8535 53.4434 71.709 53.6484 71.5605 53.7891C71.4121 53.9297 71.2461 54 71.0625 54C70.7734 54 70.6289 53.8242 70.6289 53.4727C70.6289 53.3516 70.6484 53.2227 70.6875 53.0859C70.7383 52.9414 70.8008 52.8066 70.875 52.6816C70.9492 52.5566 71.0117 52.4512 71.0625 52.3652C71.0117 52.3496 70.9805 52.3398 70.9688 52.3359C70.957 52.332 70.9473 52.3301 70.9395 52.3301C70.9316 52.2988 70.957 52.2148 71.0156 52.0781L71.4316 51.1348C71.4707 51.0371 71.5156 50.9883 71.5664 50.9883C71.6055 50.9883 71.6641 51.0137 71.7422 51.0645C71.8242 51.1113 71.8926 51.1543 71.9473 51.1934C72.0762 51.3105 72.166 51.4238 72.2168 51.5332C72.2715 51.6426 72.2988 51.8125 72.2988 52.043ZM71.7305 52.9688C71.7305 52.8555 71.6914 52.7637 71.6133 52.6934C71.5742 52.6543 71.5176 52.6133 71.4434 52.5703C71.373 52.5234 71.3145 52.4961 71.2676 52.4883C71.2324 52.4883 71.1699 52.5566 71.0801 52.6934C70.9941 52.8301 70.9512 52.9453 70.9512 53.0391C70.9512 53.2148 71.0566 53.3027 71.2676 53.3027C71.3613 53.3027 71.4609 53.2695 71.5664 53.2031C71.6758 53.1328 71.7305 53.0547 71.7305 52.9688ZM75.1055 50.959C75.1016 51.0645 75.0605 51.2559 74.9824 51.5332C74.9082 51.8105 74.8086 52.1133 74.6836 52.4414C74.5625 52.7695 74.4551 53.0176 74.3613 53.1855C74.2676 53.3535 74.1641 53.4824 74.0508 53.5723C73.9414 53.6582 73.7617 53.7383 73.5117 53.8125C73.2656 53.8828 73.0664 53.9316 72.9141 53.959C72.7656 53.9824 72.6719 53.9941 72.6328 53.9941C72.5938 53.9902 72.5703 53.9746 72.5625 53.9473C72.5547 53.9199 72.5664 53.8848 72.5977 53.8418C72.6406 53.7754 72.748 53.6895 72.9199 53.584C73.0957 53.4746 73.2988 53.3398 73.5293 53.1797C73.7598 53.0156 73.9238 52.873 74.0215 52.752C74.1191 52.6309 74.2285 52.4492 74.3496 52.207C74.4746 51.9648 74.5859 51.7207 74.6836 51.4746C74.7852 51.2285 74.8574 51.0605 74.9004 50.9707C74.9434 50.8809 74.9902 50.8379 75.041 50.8418C75.084 50.8496 75.1055 50.8887 75.1055 50.959ZM76.0312 51.791C76.0234 51.9395 76.0078 52.0742 75.9844 52.1953C75.9609 52.3125 75.9297 52.4141 75.8906 52.5C75.8516 52.582 75.8008 52.6445 75.7383 52.6875C75.6797 52.7266 75.6074 52.7402 75.5215 52.7285C75.5254 52.4238 75.5566 52 75.6152 51.457C75.6777 50.9102 75.7695 50.3066 75.8906 49.6465C75.9531 49.4551 76.0801 49.1172 76.2715 48.6328C76.291 48.5859 76.3105 48.5664 76.3301 48.5742C76.3535 48.582 76.3652 48.6016 76.3652 48.6328C76.3535 48.8711 76.3047 49.3262 76.2188 49.998C76.1328 50.6699 76.0801 51.1309 76.0605 51.3809C76.041 51.6309 76.0312 51.7676 76.0312 51.791ZM76.7109 52.3945C76.7578 52.4375 76.8359 52.4609 76.9453 52.4648C77.0547 52.4648 77.1348 52.4648 77.1855 52.4648C77.2637 52.4727 77.3027 52.5176 77.3027 52.5996C77.3027 52.6582 77.2715 52.7812 77.209 52.9688C77.0996 53.2969 76.957 53.5488 76.7812 53.7246C76.5977 53.9082 76.3965 54 76.1777 54C75.9707 54 75.8086 53.8965 75.6914 53.6895C75.5742 53.4785 75.5176 53.2227 75.5215 52.9219L75.5273 52.6582C75.5391 52.5527 75.5605 52.4434 75.5918 52.3301C75.623 52.2168 75.6621 52.1152 75.709 52.0254C75.7559 51.9316 75.8086 51.8574 75.8672 51.8027C75.9219 51.7441 75.9766 51.7188 76.0312 51.7266C76.0312 52.2773 76.0918 52.5723 76.2129 52.6113C76.2559 52.5684 76.3164 52.4746 76.3945 52.3301C76.4414 52.2441 76.4766 52.1855 76.5 52.1543C76.5156 52.1348 76.5371 52.1211 76.5645 52.1133C76.5957 52.1055 76.627 52.1016 76.6582 52.1016C76.6934 52.1016 76.7246 52.1074 76.752 52.1191C76.7793 52.127 76.7988 52.1387 76.8105 52.1543C76.7832 52.1777 76.7656 52.1934 76.7578 52.2012C76.6758 52.2832 76.6602 52.3477 76.7109 52.3945ZM77.0156 52.8535C76.9297 52.9043 76.8633 52.9531 76.8164 53C76.75 53.0273 76.6855 53.0371 76.623 53.0293C76.5566 53.0215 76.5176 53.0117 76.5059 53C76.5371 52.9531 76.6074 52.8711 76.7168 52.7539C76.8223 52.6328 76.9746 52.4961 77.1738 52.3438C77.373 52.1953 77.5547 52.1094 77.7188 52.0859C77.7695 52.082 77.834 52.0977 77.9121 52.1328C77.9902 52.1719 78.0352 52.1914 78.0469 52.1914C78.1562 52.207 78.252 52.1582 78.334 52.0449C78.416 51.9277 78.4746 51.8379 78.5098 51.7754C78.6309 51.8652 78.7422 51.8203 78.8438 51.6406C78.9375 51.4648 78.998 51.377 79.0254 51.377C79.0488 51.377 79.0605 51.3965 79.0605 51.4355C79.0488 51.502 79.041 51.5469 79.0371 51.5703C79.002 51.7266 78.9531 51.873 78.8906 52.0098C78.8359 52.127 78.7676 52.2188 78.6855 52.2852C78.6113 52.3438 78.543 52.3848 78.4805 52.4082C78.4141 52.4355 78.3516 52.4512 78.293 52.4551C78.2852 52.4785 78.2344 52.5352 78.1406 52.625C78.0469 52.7109 77.9727 52.7598 77.918 52.7715C77.8828 52.7832 77.8379 52.7891 77.7832 52.7891C77.7441 52.7852 77.6992 52.7695 77.6484 52.7422C77.6016 52.7188 77.541 52.707 77.4668 52.707C77.334 52.707 77.1836 52.7559 77.0156 52.8535ZM77.1504 49.2734C77.1504 49.2266 77.2324 49.0488 77.3965 48.7402C77.5645 48.4316 77.668 48.2773 77.707 48.2773C77.7695 48.2773 77.8672 48.334 78 48.4473C78.1367 48.5605 78.2285 48.668 78.2754 48.7695C78.3613 48.6289 78.4434 48.4922 78.5215 48.3594C78.6348 48.1719 78.7051 48.0781 78.7324 48.0781C78.8262 48.0781 78.9453 48.1445 79.0898 48.2773C79.2305 48.4258 79.3008 48.5625 79.3008 48.6875C79.3008 48.832 79.2305 49.0117 79.0898 49.2266C78.9453 49.4336 78.8418 49.5371 78.7793 49.5371C78.7285 49.5371 78.6562 49.4883 78.5625 49.3906C78.4336 49.2539 78.3262 49.1543 78.2402 49.0918C78.0254 49.5293 77.8574 49.748 77.7363 49.748C77.709 49.748 77.6035 49.6758 77.4199 49.5312C77.2402 49.3867 77.1504 49.3008 77.1504 49.2734ZM77.6836 47.8203C77.6836 47.7812 77.7559 47.6094 77.9004 47.3047C78.0488 46.9961 78.1445 46.8418 78.1875 46.8418C78.2969 46.8418 78.418 46.9082 78.5508 47.041C78.6836 47.1895 78.75 47.332 78.75 47.4688C78.75 47.5977 78.6875 47.7754 78.5625 48.002C78.4414 48.2285 78.3516 48.3418 78.293 48.3418C78.2578 48.3418 78.1797 48.2891 78.0586 48.1836C77.9375 48.0742 77.8438 47.9961 77.7773 47.9492C77.7148 47.9023 77.6836 47.8594 77.6836 47.8203ZM83.3555 51.1641C83.293 51.1719 83.2305 51.2285 83.168 51.334C83.1055 51.4395 83.0625 51.5156 83.0391 51.5625C82.9727 51.6719 82.9043 51.7598 82.834 51.8262C82.752 51.9082 82.6445 51.9805 82.5117 52.043C82.2266 52.1797 82.0215 52.3125 81.8965 52.4414C81.8145 52.5234 81.7188 52.6738 81.6094 52.8926C81.4102 53.2949 81.2148 53.5625 81.0234 53.6953C80.832 53.832 80.4883 53.9297 79.9922 53.9883C79.9531 53.9961 79.9062 54 79.8516 54H79.7168C79.6465 54 79.6113 53.9922 79.6113 53.9766C79.6113 53.8867 79.7305 53.7656 79.9688 53.6133C80.1562 53.5 80.2969 53.416 80.3906 53.3613C80.6719 53.2012 80.8789 53.0742 81.0117 52.9805C81.1992 52.8438 81.3223 52.7109 81.3809 52.582C81.5762 52.1836 81.7383 51.9062 81.8672 51.75C82.0117 51.5781 82.1777 51.4453 82.3652 51.3516C82.666 51.1836 82.8398 51.084 82.8867 51.0527L83.3555 51.1641ZM80.5664 49.084C80.5664 48.998 80.6387 48.8125 80.7832 48.5273C80.9316 48.2383 81.0273 48.0938 81.0703 48.0938C81.1562 48.0586 81.2812 48.125 81.4453 48.293C81.6094 48.457 81.6973 48.5859 81.709 48.6797C81.709 48.8047 81.6406 48.9844 81.5039 49.2188C81.3672 49.4531 81.2676 49.5703 81.2051 49.5703C81.1816 49.5586 81.0996 49.5078 80.959 49.418C80.8223 49.3242 80.7207 49.2539 80.6543 49.207C80.5957 49.168 80.5664 49.127 80.5664 49.084ZM84.4102 46.0996C84.5859 45.9082 84.9609 45.5801 85.5352 45.1152C86.0703 44.6934 86.582 44.2812 87.0703 43.8789C87.4609 43.5625 87.8125 43.2559 88.125 42.959C88.3672 42.7324 88.6836 42.4277 89.0742 42.0449C89.6562 41.4863 89.9551 41.1934 89.9707 41.166C89.9941 41.166 89.9902 41.2129 89.959 41.3066C89.9277 41.3965 89.8477 41.5508 89.7188 41.7695C89.582 42.0117 89.4746 42.1797 89.3965 42.2734C89.2676 42.4453 89.1309 42.6113 88.9863 42.7715C88.834 42.9355 88.7148 43.0605 88.6289 43.1465C88.5234 43.2598 88.3203 43.4473 88.0195 43.709C87.7617 43.9395 87.4375 44.2207 87.0469 44.5527C86.8945 44.6816 86.75 44.8008 86.6133 44.9102C86.4805 45.0195 86.3535 45.1191 86.2324 45.209C85.9395 45.4434 85.6191 45.6875 85.2715 45.9414L84.4453 46.5859C84.3867 46.6367 84.3281 46.6855 84.2695 46.7324C84.2148 46.7754 84.1602 46.8184 84.1055 46.8613C84 46.9473 83.9375 46.9766 83.918 46.9492C83.9844 46.7695 84.0566 46.6094 84.1348 46.4688C84.2246 46.3164 84.3164 46.1934 84.4102 46.0996ZM83.8535 47.5059C83.8457 47.5957 83.832 47.9453 83.8125 48.5547C83.7891 49.2305 83.7461 49.791 83.6836 50.2363C83.6562 50.5098 83.5547 50.832 83.3789 51.2031C83.2109 51.5703 82.9766 51.8359 82.6758 52C82.6641 51.9375 82.6504 51.875 82.6348 51.8125C82.6191 51.7461 82.6074 51.6816 82.5996 51.6191C82.5918 51.5527 82.5938 51.4883 82.6055 51.4258C82.6133 51.3594 82.6367 51.293 82.6758 51.2266C82.7148 51.2031 82.8047 51.1465 82.9453 51.0566C83.0859 50.9629 83.1602 50.8789 83.168 50.8047C83.2188 50.6328 83.25 50.3301 83.2617 49.8965C83.2734 49.4707 83.2793 49.166 83.2793 48.9824C83.2793 48.6074 83.3105 48.3203 83.373 48.1211C83.4395 47.9258 83.5195 47.7188 83.6133 47.5C83.7422 47.2305 83.8262 47.0566 83.8652 46.9785C83.9082 46.9512 83.9238 46.9824 83.9121 47.0723C83.873 47.3027 83.8535 47.4473 83.8535 47.5059ZM86.3672 51.6387C86.3203 51.7715 86.2305 51.8887 86.0977 51.9902C85.9648 52.0918 85.8086 52.1777 85.6289 52.248C85.4688 52.3184 85.3242 52.3945 85.1953 52.4766C84.9336 52.6562 84.7148 52.8574 84.5391 53.0801C84.5078 53.1113 84.3555 53.3262 84.082 53.7246C83.75 54.248 83.5625 54.5391 83.5195 54.5977C83.2383 54.9531 82.875 55.2773 82.4297 55.5703C82.3203 55.6406 82.2012 55.709 82.0723 55.7754C81.8926 55.8652 81.7793 55.9199 81.7324 55.9395C81.6113 56.0059 81.543 56.0137 81.5273 55.9629C81.5039 55.9043 81.6875 55.7324 82.0781 55.4473C82.3828 55.2324 82.627 55.0332 82.8105 54.8496C83.0645 54.5918 83.2832 54.3184 83.4668 54.0293C83.5488 53.8926 83.6191 53.7773 83.6777 53.6836C83.7324 53.5898 83.7754 53.5195 83.8066 53.4727C84.0059 53.1523 84.1699 52.9004 84.2988 52.7168C84.4551 52.4863 84.5996 52.3047 84.7324 52.1719C84.8574 52.0469 84.9531 51.957 85.0195 51.9023C85.1367 51.7969 85.2637 51.709 85.4004 51.6387L85.5176 51.5801L86.3672 51.6387ZM84.627 53.5859C84.5996 53.6172 84.5801 53.6406 84.5684 53.6562V52.9648C84.5684 52.9609 84.6152 52.9043 84.709 52.7949C84.8027 52.6855 84.918 52.5645 85.0547 52.4316C85.1875 52.2988 85.3047 52.1973 85.4062 52.127L85.6113 51.7871L85.8457 51.377C85.9082 51.2676 85.957 51.1855 85.9922 51.1309C86.0156 51.0918 86.0371 51.0645 86.0566 51.0488C86.0605 51.041 86.1152 51.0879 86.2207 51.1895C86.4512 51.4355 86.6191 51.6484 86.7246 51.8281C86.748 51.875 86.7598 51.918 86.7598 51.957C86.7598 52 86.7441 52.0645 86.7129 52.1504C86.6465 52.3105 86.5742 52.4531 86.4961 52.5781C86.4258 52.707 86.3418 52.8203 86.2441 52.918C86.2129 52.9492 86.1621 52.9648 86.0918 52.9648H85.9102C85.8086 52.9648 85.7109 52.9707 85.6172 52.9824C85.5234 52.9941 85.4297 53.0176 85.3359 53.0527C85.2539 53.084 85.1309 53.1562 84.9668 53.2695C84.8145 53.3828 84.7012 53.4883 84.627 53.5859Z" fill="white"/>
</svg>
