<svg width="442" height="288" viewBox="0 0 442 288" fill="none" xmlns="http://www.w3.org/2000/svg">
<path d="M166.067 154.109L151.453 144.544L157.299 136.573C153.579 132.853 150.39 128.336 148.265 123.553L147.468 123.819L138.168 126.21L134.714 108.939L144.545 107.345C144.545 106.814 144.545 106.282 144.545 106.016C144.545 100.437 145.608 95.1225 147.468 90.3398L139.231 85.5571L148.796 70.9433L156.236 76.5231C160.222 72.5375 164.739 69.0834 170.053 66.9577L169.787 66.692L167.396 57.3923L184.666 53.9382L185.995 63.5036C186.261 63.5036 186.792 63.5036 187.058 63.5036C192.903 63.5036 198.483 64.5664 203.532 66.692L203.797 66.4263L208.58 58.1895L223.194 67.7548L217.348 75.726C221.599 79.9773 224.788 84.76 227.179 90.3398L227.711 90.0741L237.01 87.6827L240.465 104.954L230.368 106.548H230.102C230.102 112.659 228.774 118.505 226.382 123.819H226.648L234.885 128.601L225.319 143.215L217.083 137.104C212.831 141.09 207.783 144.278 202.203 146.404V146.669L204.594 155.969L187.324 159.423L185.729 149.326V149.061C180.415 148.795 175.101 147.732 170.318 145.872V146.138L166.067 154.109ZM187.589 79.1802C202.469 79.1802 214.425 91.1369 214.425 106.282C214.425 121.162 202.469 133.118 187.324 133.118C172.178 133.118 160.487 120.896 160.487 106.016C160.487 91.1369 172.71 79.1802 187.589 79.1802Z" fill="#FE0000"/>
<path d="M238.338 138.964C233.556 146.669 226.913 153.312 219.473 159.157C218.145 160.22 216.551 161.283 215.488 162.611C221.068 162.877 226.647 162.611 232.227 162.611C239.933 162.611 247.372 162.877 255.078 162.611C257.204 160.752 258.532 158.626 260.126 156.5C265.44 148.795 270.489 140.558 273.146 131.524C275.271 124.616 275.803 117.707 275.803 110.533C276.069 104.422 275.537 98.3108 273.943 92.1996C265.44 63.7691 257.469 35.0729 248.967 6.37676C248.435 4.51682 248.17 2.12547 247.107 0.531238C238.073 0.265533 229.304 0.531238 220.27 0.531238C228.773 32.9473 237.807 65.0976 246.575 97.5137C248.435 111.596 246.31 126.741 238.338 138.964Z" fill="#004C9A"/>
<path d="M283.507 111.331C283.773 114.785 282.71 118.239 282.445 121.693C280.585 133.384 276.599 144.809 270.222 154.64C269.159 156.5 267.831 158.095 266.768 159.955C269.956 160.486 273.145 159.423 276.068 158.626C283.507 156.5 289.884 151.983 294.933 146.404C300.247 141.355 303.435 134.978 306.89 128.601C310.078 122.49 310.875 115.316 311.407 108.408C311.672 100.702 311.141 92.7311 309.281 85.2914C302.904 65.0978 296.527 44.6385 290.15 24.4449C287.493 16.208 285.102 7.97116 282.179 0C273.411 0.265705 264.642 0 255.608 0C263.58 30.0247 271.816 60.0494 280.053 90.3398C282.445 97.2481 283.507 104.422 283.507 111.331Z" fill="#004C9A"/>
<path d="M344.619 116.113C344.619 112.925 345.416 109.736 345.15 106.282C345.416 91.4028 343.025 76.5233 337.976 62.7066C333.725 50.2185 329.474 37.7303 325.223 25.2422C322.3 17.0053 319.643 8.50273 316.454 0.265869C307.42 0.265869 298.386 0.265869 289.352 0.265869C290.947 6.37709 293.072 12.2226 294.932 18.3338C300.512 36.4018 306.357 54.4697 311.937 72.5377C314.594 80.7746 316.454 89.2771 316.986 97.7797C316.986 103.36 317.517 108.939 316.454 114.253C315.391 123.553 312.203 132.321 307.42 140.293C301.043 150.389 291.478 158.095 280.584 162.878C277.13 164.472 273.676 165.8 270.222 166.863C266.502 167.926 263.048 168.989 259.062 168.989C232.491 168.989 205.655 168.989 179.085 168.989C164.471 165.8 150.123 159.158 139.495 148.529C131.523 140.824 126.741 130.461 124.881 119.568C123.818 114.253 124.084 108.939 124.349 103.625C125.678 91.4028 130.726 79.446 137.9 69.615C140.026 66.6922 142.683 64.5666 145.074 61.9095C148.529 58.4553 152.78 56.064 156.765 53.6726C164.205 49.4213 172.442 47.03 180.945 46.2329C188.916 45.9672 196.887 47.03 204.592 49.4213C214.158 52.8755 223.192 58.1896 230.1 65.8951C230.1 62.4409 228.506 59.2524 227.709 56.064C225.052 45.7015 221.863 35.6047 219.206 25.2422C218.94 24.1793 217.612 23.9136 216.815 23.3822C206.187 19.6624 194.761 17.5367 183.336 17.8024C173.239 17.5367 163.408 19.9281 154.108 23.6479C145.872 27.1021 138.166 31.8848 130.992 37.1989C122.224 44.3729 114.253 53.1412 108.407 62.9723C101.499 75.1948 96.7161 89.0114 96.9818 103.36C96.7161 121.959 101.233 140.824 111.33 156.235C120.364 170.317 134.18 181.211 149.326 188.119C157.297 191.839 166.065 194.762 174.833 196.091C202.732 196.091 230.897 196.091 258.796 196.091C277.661 194.496 295.729 187.322 310.609 175.631C319.643 168.192 327.614 159.158 333.725 149.061C339.836 139.23 343.025 127.804 344.619 116.113Z" fill="#004C9A"/>
<path d="M97.2468 179.086C90.6042 185.728 83.4302 191.839 75.9904 197.685C71.2077 201.936 65.6279 205.39 61.3766 210.439C60.3138 211.767 59.7824 213.362 59.251 214.69C61.908 213.627 63.768 211.502 65.8936 209.907C72.0048 205.39 77.8504 200.608 83.9616 195.825C89.5414 191.042 95.1212 186.26 99.6382 180.414C101.232 178.023 103.092 175.897 103.889 172.974C101.232 174.834 99.3725 177.226 97.2468 179.086Z" fill="#004C9A"/>
<path d="M221.599 215.487C223.194 213.627 224.522 211.501 224.788 208.844C223.459 206.984 221.865 205.656 220.271 204.327C217.88 206.453 216.817 209.376 215.754 212.298C217.614 213.627 219.208 216.018 221.599 215.487Z" fill="#004C9A"/>
<path d="M263.844 216.55C265.704 214.69 267.033 212.299 267.298 209.642C267.033 207.251 265.173 205.656 263.047 204.859C261.453 207.251 260.124 209.642 259.327 212.565C260.39 214.425 262.516 215.222 263.844 216.55Z" fill="#004C9A"/>
<path d="M42.7784 215.221C44.1069 213.362 44.904 210.439 43.5755 208.313C42.7784 206.985 41.1841 205.922 39.5899 206.453C38.2614 208.845 36.6672 211.236 36.1357 213.893C37.4643 214.956 38.5271 216.019 39.8556 217.081C41.4498 217.613 42.247 216.019 42.7784 215.221Z" fill="#004C9A"/>
<path d="M259.327 226.647C261.719 226.647 262.25 223.724 263.579 222.13C264.907 223.192 265.97 224.521 267.299 225.318C267.564 225.318 267.83 225.318 268.096 225.052C269.956 223.192 271.816 220.801 271.55 217.878C270.753 216.284 269.159 214.956 267.83 213.893C266.236 215.221 265.173 217.081 264.11 218.941C262.782 217.613 261.453 216.55 259.859 215.487C257.999 217.878 256.67 220.535 255.342 223.192C256.405 224.521 257.733 226.115 259.327 226.647Z" fill="#004C9A"/>
<path d="M40.3877 223.192C41.4505 223.989 42.5133 224.786 43.5761 225.584C44.1075 226.115 45.4361 226.115 45.9675 225.318C47.296 223.724 48.6245 221.864 48.3588 219.738C48.6245 217.612 46.2332 216.284 44.9047 214.955C43.0447 216.284 41.9819 218.144 40.9191 220.269C39.5905 218.941 38.262 217.612 36.9335 216.284C34.5421 218.41 33.4793 221.598 32.4165 224.255C34.0107 225.584 35.3393 226.912 37.1992 227.709C38.5277 226.646 39.5905 225.052 40.3877 223.192Z" fill="#004C9A"/>
<path d="M210.705 221.067C209.376 219.473 208.048 216.284 205.391 216.816C203.531 218.941 202.734 221.598 201.671 223.99C203.265 225.318 204.859 226.647 206.719 227.178C208.845 226.115 209.376 223.193 210.705 221.067Z" fill="#004C9A"/>
<path d="M58.7216 221.864C58.9873 220.004 58.9873 218.144 58.9873 216.284C56.596 218.675 55.7988 222.395 54.736 225.849C54.2046 230.632 54.736 235.149 54.4703 239.931C54.2046 241.26 53.4075 242.589 52.6104 243.651C51.8133 244.714 50.4847 244.448 49.4219 244.448C48.8905 245.246 48.3591 245.777 47.562 246.574C46.7649 246.574 45.9677 246.574 45.1706 246.574C44.6392 247.371 44.3735 248.168 43.5764 248.7C42.7793 248.965 41.7165 248.7 40.9193 248.965C39.8565 249.763 39.0594 250.825 37.4652 251.091C35.8709 251.357 35.8709 249.231 35.0738 248.434C34.5424 246.574 32.4168 245.777 30.8225 246.308C28.4312 248.434 27.1027 251.357 26.0398 254.014C25.7741 255.077 25.7741 256.14 25.7741 257.202C26.837 259.594 29.7597 258.531 31.8854 258.797C30.5568 261.188 28.9626 263.579 26.5713 265.174C23.9142 267.299 20.7257 268.628 18.6001 271.285C22.32 270.753 26.0399 269.425 29.494 267.831C32.6825 264.908 33.7453 260.391 35.3395 256.671C38.7937 253.482 44.1078 253.217 48.0934 250.825C50.7504 249.497 53.1418 247.637 54.736 245.246C57.1274 241.791 57.6588 237.806 58.4559 233.82C58.9873 229.569 58.1902 225.583 58.7216 221.864Z" fill="#004C9A"/>
<path d="M350.997 217.081C348.074 218.41 345.683 220.801 342.495 221.332C340.103 221.598 337.446 221.332 335.055 221.332C332.929 221.067 331.069 220.004 328.944 220.801C324.427 222.395 320.707 225.849 318.581 230.101C320.441 229.835 322.035 228.506 323.629 227.709C326.287 227.178 328.678 227.709 331.069 228.506C336.118 229.569 340.9 227.444 344.886 224.787C347.809 222.927 350.731 220.535 350.997 217.081Z" fill="#004C9A"/>
<path d="M129.93 224.521C129.133 222.395 127.273 221.067 125.413 220.004C123.553 222.395 121.428 225.318 121.694 228.507C123.022 229.835 124.616 231.429 126.742 231.429C128.336 229.304 129.93 227.178 129.93 224.521Z" fill="#004C9A"/>
<path d="M288.556 231.961C289.885 230.101 291.479 227.444 290.15 225.318C289.087 223.99 287.759 222.13 285.899 222.395C284.039 224.521 282.445 227.178 282.445 230.101C283.773 231.164 285.102 232.227 286.43 232.758C287.228 233.289 288.025 232.758 288.556 231.961Z" fill="#004C9A"/>
<path d="M409.188 222.395C407.593 224.521 406.265 226.912 405.733 229.569C406.796 231.163 408.656 232.226 410.25 233.555C412.376 231.961 413.705 229.304 414.502 226.912C413.173 225.052 411.579 222.13 409.188 222.395Z" fill="#004C9A"/>
<path d="M226.381 231.163C225.319 228.772 222.927 227.178 220.27 227.709C218.942 230.366 217.613 233.023 216.285 235.68C216.019 236.478 216.019 237.54 216.019 238.603C217.613 240.463 220.536 239.4 222.662 239.666C223.724 240.463 223.99 242.323 222.662 243.12C220.27 243.386 217.613 242.589 215.222 243.652C212.033 244.714 209.642 247.371 207.516 250.029C205.125 252.951 202.999 256.937 203.796 260.657C205.391 262.782 208.313 263.314 210.173 265.174C209.376 267.565 208.579 269.956 206.719 271.551C202.734 275.536 196.622 276.865 191.308 276.068C188.917 275.536 186.526 274.208 185.463 272.082C183.603 268.628 184.4 264.377 185.728 260.922C187.323 256.14 189.98 251.623 191.308 246.574C190.511 247.106 189.448 247.637 189.183 248.434C185.994 254.811 182.806 261.454 181.477 268.628C181.212 273.145 180.68 277.928 183.337 281.913C185.994 285.899 191.574 286.962 196.091 285.633C201.937 283.773 206.188 278.99 208.845 273.676C211.502 268.362 213.628 262.782 212.565 256.937C212.033 254.811 208.845 254.28 208.579 252.154C209.908 250.294 211.768 248.7 213.893 247.903C216.285 247.371 218.41 250.029 220.802 248.7C222.927 247.106 224.256 244.714 225.319 242.589C227.444 238.869 228.507 234.618 226.381 231.163Z" fill="#004C9A"/>
<path d="M388.195 256.671C386.866 258.266 386.069 259.86 385.803 261.985C383.146 262.251 381.552 259.328 381.552 257.203C381.286 252.686 382.615 248.434 382.615 243.917C383.146 239.932 384.209 235.681 383.678 231.695C383.146 232.226 382.615 233.024 382.349 233.821C380.489 238.603 379.692 243.917 379.161 248.966C378.098 254.546 378.098 260.125 378.363 265.705C378.363 268.097 380.223 269.957 382.083 271.019C383.678 271.285 385.803 271.285 386.866 269.957C388.726 267.831 389.789 264.908 390.32 261.985C390.586 260.125 389.257 258.266 388.195 256.671Z" fill="#004C9A"/>
<path d="M441.601 251.357C440.804 252.686 440.006 254.28 439.209 255.608C438.412 255.608 437.615 255.608 436.818 255.874C435.755 256.937 435.224 258.266 434.427 259.328C433.364 259.328 431.77 259.063 430.972 259.86C429.113 261.454 427.253 263.58 424.33 263.314C421.673 263.58 419.547 261.188 419.016 258.797C418.219 253.217 419.813 247.903 420.079 242.323C420.61 238.869 421.407 235.415 421.141 231.695C419.547 233.024 419.016 235.149 418.484 237.009C416.89 242.058 416.624 247.637 415.827 252.686C415.562 256.406 415.562 260.125 415.562 263.845C415.562 265.705 416.093 267.831 417.156 269.425C418.484 271.285 421.141 271.551 423.001 271.019C426.19 269.691 427.253 265.971 430.175 264.377C431.238 264.111 432.567 264.111 433.895 264.111C434.958 263.048 435.755 261.72 437.084 260.923C440.006 259.063 442.132 255.077 441.601 251.357Z" fill="#004C9A"/>
<path d="M79.4467 252.155C78.1182 255.077 76.7897 258.266 77.5868 261.72C78.6496 264.643 82.1038 264.643 84.2294 265.971C84.4951 267.565 83.698 269.16 82.9009 270.488C80.5095 274.208 76.7897 276.865 72.5384 277.928C70.147 278.194 67.49 278.194 65.0986 277.928C62.4416 277.397 60.3159 275.271 59.2531 273.145C58.9874 271.285 58.9874 269.425 59.2531 267.565C60.5816 261.189 64.0358 255.343 66.1614 249.232C66.4271 248.435 66.4272 247.638 66.4272 246.84C63.5044 249.497 62.7073 253.483 60.8473 256.672C57.3932 263.846 54.4704 271.817 55.7989 279.788C56.5961 283.242 58.9874 286.431 62.4416 287.493C67.49 288.822 73.0698 287.493 77.0554 284.039C81.8381 280.054 84.7608 274.208 86.0893 268.363C87.1522 264.908 87.4179 261.454 86.8865 257.734C85.8236 255.343 82.9009 255.609 81.3067 253.483C81.3067 252.155 82.1038 251.092 82.9009 250.029C85.0265 247.372 87.6836 244.98 90.6063 243.652C91.9349 242.855 93.5291 243.386 94.8576 243.121C96.1861 241.261 96.9833 238.869 97.7804 236.744C98.3118 235.947 97.7804 234.884 97.5147 234.087C89.5435 237.275 83.4323 244.449 79.4467 252.155Z" fill="#004C9A"/>
<path d="M311.141 233.821C309.547 235.681 308.218 237.541 306.624 239.401C303.701 242.058 302.638 246.309 299.981 249.232C298.918 247.637 297.59 245.777 295.464 246.043C293.604 246.84 292.541 248.966 291.744 250.826C290.681 252.952 289.353 255.343 290.416 257.734C291.744 259.594 294.401 258.531 296.261 258.797C294.933 261.72 292.541 264.377 289.619 266.237C287.493 267.831 284.57 268.894 283.242 271.551C285.899 271.019 288.29 270.222 290.681 269.425C292.276 268.894 293.87 268.362 294.667 267.034C297.324 263.845 298.121 259.594 299.715 255.874C301.575 252.686 302.904 249.232 306.092 246.84C308.218 246.309 310.875 247.637 312.469 245.777C314.861 243.918 315.126 240.729 314.329 238.072C313.532 236.212 312.204 235.149 311.141 233.821Z" fill="#004C9A"/>
<path d="M107.61 236.212C107.079 236.212 106.547 236.212 106.281 236.212C104.953 239.932 103.093 243.386 102.827 247.106C102.562 251.623 102.827 256.14 102.827 260.657C102.562 263.314 101.499 265.971 101.764 268.893C105.219 265.439 106.016 260.391 106.813 255.874C107.61 249.497 106.281 242.854 107.61 236.212Z" fill="#004C9A"/>
<path d="M328.147 242.855C325.755 248.966 327.615 255.609 326.818 261.986C326.553 264.111 325.755 266.237 325.755 268.628C326.552 268.097 327.35 267.566 327.881 266.768C330.538 261.986 331.069 256.406 331.335 250.826C331.335 246.043 331.601 241.526 331.335 236.744C329.475 238.072 328.944 240.729 328.147 242.855Z" fill="#004C9A"/>
<path d="M161.814 242.323C163.409 241.26 163.674 239.4 163.94 237.54C162.08 238.072 160.486 239.135 158.626 238.603C156.235 238.072 153.843 237.275 151.718 238.072C149.592 239.666 147.466 241.792 147.732 244.449C148.795 243.386 149.858 242.323 151.186 241.526C153.577 240.995 155.703 242.057 157.829 243.12C156.5 245.512 154.906 248.169 152.515 249.497C149.858 251.091 146.935 252.154 145.075 254.811C143.215 256.937 142.418 259.86 140.824 261.985C137.369 265.971 131.258 266.768 128.335 271.285C131.79 271.551 135.244 271.019 138.432 269.425C142.684 267.034 142.949 261.188 147.201 258.531C149.858 256.937 152.515 255.874 154.375 253.217C157.297 249.763 158.094 245.246 161.814 242.323Z" fill="#004C9A"/>
<path d="M272.878 247.372C274.207 245.778 275.004 243.386 275.004 241.261C272.878 242.589 270.753 243.918 268.893 245.778C267.033 247.638 263.047 244.98 261.719 248.169C261.187 252.155 261.985 256.14 260.922 260.126C259.859 267.034 254.545 273.411 247.902 275.537C245.245 276.599 242.322 276.599 239.665 276.599C235.945 276.599 232.491 274.208 231.163 271.02C230.1 265.971 231.96 260.923 234.086 256.406C234.617 255.343 234.351 254.28 234.351 253.217C230.1 259.329 227.443 266.503 227.443 273.942C227.443 278.194 229.303 282.976 233.288 284.836C237.805 287.228 243.385 286.431 247.636 284.039C254.279 280.585 258.265 274.208 260.922 267.565C262.782 262.783 264.11 257.734 264.11 252.686C265.704 251.889 267.299 251.092 268.893 250.029C270.221 248.7 271.816 248.435 272.878 247.372Z" fill="#004C9A"/>
<path d="M370.391 250.294C368.532 255.609 371.189 261.454 368.266 266.502C366.406 270.754 362.686 274.208 358.169 275.802C354.715 277.131 351.261 276.865 347.541 276.599C345.149 276.068 343.024 275.005 341.695 272.879C339.835 270.222 340.101 266.768 340.898 263.58C341.695 260.125 343.555 256.937 344.618 253.749C344.087 253.483 343.29 254.014 343.024 254.546C340.101 259.328 337.975 264.908 337.178 270.754C336.913 274.474 336.913 278.459 339.038 281.648C341.164 284.836 344.884 286.696 348.869 286.43C354.715 286.696 360.029 283.508 363.749 279.256C370.923 271.285 374.111 260.125 373.846 249.497C373.846 247.106 374.377 244.715 374.111 242.323C371.72 244.449 371.189 247.637 370.391 250.294Z" fill="#004C9A"/>
<path d="M133.914 252.42C133.914 249.232 131.789 246.575 128.866 245.246C127.803 245.246 125.943 244.715 125.412 246.309C124.083 248.7 123.02 251.357 121.958 253.749C121.426 255.077 122.223 256.406 123.02 257.203C124.88 257.469 126.74 257.203 128.6 257.203C129.132 257.734 129.397 258.266 129.929 258.797C128.866 259.86 128.069 261.188 126.475 261.72C123.286 262.783 119.566 260.923 116.378 262.517C112.924 264.377 109.735 266.768 107.609 269.957C107.078 270.754 106.547 271.551 106.812 272.348C108.672 272.348 110.267 271.02 112.126 270.754C115.315 270.222 117.972 272.348 121.16 271.817C124.615 270.754 127.272 267.565 129.397 264.643C131.789 261.188 134.18 256.937 133.914 252.42Z" fill="#004C9A"/>
<path d="M170.053 246.84C167.927 249.231 166.599 252.154 165.801 255.077C165.27 256.937 166.599 258.797 168.459 259.328C169.521 259.328 170.584 258.797 171.647 258.797C170.053 265.439 162.613 266.768 158.627 271.551C161.019 271.551 163.144 270.488 165.536 269.956C167.661 269.159 170.318 268.628 171.381 266.502C173.507 262.782 175.101 258.797 175.898 254.546C176.43 252.154 176.43 248.966 174.304 247.372C173.241 245.777 171.116 245.512 170.053 246.84Z" fill="#004C9A"/>
<path d="M17.2708 250.029C15.6766 253.483 14.3481 257.203 12.2224 260.391C9.8311 264.377 5.57981 266.237 1.85994 268.894C1.06282 269.425 0.531411 270.488 0 271.285C2.65705 271.551 5.31411 270.754 7.70546 269.956C9.56539 269.425 11.4253 268.362 12.7539 266.768C14.8795 263.845 15.9423 260.391 17.0051 257.203C17.8023 254.28 19.1308 251.357 19.1308 248.169C18.3337 248.169 17.5365 248.966 17.2708 250.029Z" fill="#004C9A"/>
<path d="M285.101 247.372C282.179 252.42 280.85 258.797 276.599 263.048C273.41 265.971 269.69 267.831 266.502 270.223C268.096 271.551 269.956 270.754 271.816 270.488C275.005 269.691 278.459 268.628 280.053 265.706C282.179 261.986 283.507 257.734 284.836 253.749C285.101 251.623 286.696 249.232 285.101 247.372Z" fill="#004C9A"/>
<path d="M400.949 261.72C397.761 265.174 393.244 267.034 389.79 270.223C391.118 271.551 392.978 271.02 394.572 270.488C397.495 269.691 401.215 268.894 403.075 265.971C404.935 262.783 405.998 259.329 407.326 255.874C408.123 253.217 409.186 250.826 409.186 247.903C408.92 247.903 408.123 248.169 407.858 248.169C405.732 252.952 404.138 257.734 400.949 261.72Z" fill="#004C9A"/>
<path d="M356.31 264.908C358.967 262.782 360.827 259.328 359.764 255.874C358.701 254.545 357.373 253.483 356.044 252.154C353.919 254.545 352.059 257.468 351.793 260.922C353.121 262.782 354.716 263.845 356.31 264.908Z" fill="#004C9A"/>
<circle cx="187.855" cy="107.08" r="29.2276" fill="#E5E5E5"/>
<path d="M208.473 107.937L207.41 107.723L202.947 106.008L199.12 103.437L197.633 102.58L196.57 101.937L194.444 100.223L192.744 99.1519C192.744 99.1519 196.782 95.5094 196.782 94.2238L194.657 92.0811C194.657 92.0811 192.956 90.7955 191.893 91.2241C190.83 91.6526 191.468 91.224 190.618 92.0811C190.618 92.0811 189.98 93.1524 189.343 94.6523C188.705 96.1522 188.28 95.9379 188.28 95.9379C188.28 95.9379 187.429 95.9379 185.729 95.5094L184.241 95.2951C184.241 95.2951 183.391 95.5094 182.966 95.9379C182.54 96.3664 180.415 97.8663 180.415 97.8663L178.077 99.5804L176.801 100.866L175.738 101.937L175.101 103.009H171.912V105.366L176.164 107.294C176.164 107.294 175.526 110.722 170.849 112.436C170.849 112.436 169.787 112.651 167.874 115.436L166.598 116.507L168.511 120.364L168.724 120.15L170.637 119.079L202.309 118.864L205.71 120.15L209.111 112.222L208.473 107.937ZM179.352 102.794C180.202 101.937 182.115 101.509 182.115 101.509C180.415 105.366 177.651 104.723 177.651 104.723C177.651 104.723 178.289 103.437 179.352 102.794ZM178.714 118.007V116.722C178.714 116.722 181.053 116.507 184.454 117.793L178.714 118.007ZM187.217 110.508C186.579 111.794 184.028 112.222 184.028 112.222V112.865L186.792 113.722C185.941 114.365 183.816 114.793 183.816 114.793H179.565L177.864 114.365C177.864 114.365 176.801 116.936 175.101 117.364C173.188 117.793 171.487 116.936 171.487 116.936C171.487 116.936 172.975 115.222 174.038 114.579C175.101 113.936 177.014 113.722 177.014 113.722C179.565 112.222 182.115 110.294 182.115 110.294L183.816 110.936L183.603 109.437C179.99 108.58 177.226 106.651 177.226 106.651L178.289 105.151C178.289 105.151 183.178 107.723 184.028 107.937C184.879 108.151 187.217 107.937 187.217 107.937V110.508ZM194.231 113.293C192.956 113.293 192.744 117.579 192.744 117.579L191.468 113.722C191.681 112.436 190.83 110.508 190.83 110.508C189.768 108.365 187.855 106.008 187.855 106.008C187.855 106.008 187.642 106.008 189.343 104.294C191.043 102.58 192.318 103.651 192.318 103.651L196.995 106.223L196.782 109.437C199.333 109.437 202.096 110.936 202.096 110.936C202.096 110.936 200.821 112.222 199.758 113.079C198.908 113.722 195.507 113.293 194.231 113.293ZM206.985 117.579H195.932L195.719 115.008C195.719 115.008 196.57 114.579 200.608 114.365C204.647 114.15 203.372 110.079 203.372 110.079C203.372 110.079 201.884 108.58 198.695 108.58L198.27 107.294C198.27 107.294 204.86 106.223 206.56 110.079C208.261 113.722 208.261 114.579 208.261 114.579L206.985 117.579Z" fill="#FE0000"/>
</svg>
