<svg version="1.1" id="el_rwrQAcBul" xmlns="http://www.w3.org/2000/svg" xmlns:xlink="http://www.w3.org/1999/xlink" x="0px" y="0px" viewBox="0 0 250 122" style="enable-background:new 0 0 250 122;" xml:space="preserve"><style>@-webkit-keyframes kf_el_034rsD2WoO9_an_HtZIdDF2V{0%{-webkit-transform: translate(109.400390625px, 47.25px) rotate(129600deg) translate(-109.400390625px, -47.25px);transform: translate(109.400390625px, 47.25px) rotate(129600deg) translate(-109.400390625px, -47.25px);}0.07%{-webkit-transform: translate(109.400390625px, 47.25px) rotate(122040deg) translate(-109.400390625px, -47.25px);transform: translate(109.400390625px, 47.25px) rotate(122040deg) translate(-109.400390625px, -47.25px);}100%{-webkit-transform: translate(109.400390625px, 47.25px) rotate(129600deg) translate(-109.400390625px, -47.25px);transform: translate(109.400390625px, 47.25px) rotate(129600deg) translate(-109.400390625px, -47.25px);}}@keyframes kf_el_034rsD2WoO9_an_HtZIdDF2V{0%{-webkit-transform: translate(109.400390625px, 47.25px) rotate(129600deg) translate(-109.400390625px, -47.25px);transform: translate(109.400390625px, 47.25px) rotate(129600deg) translate(-109.400390625px, -47.25px);}0.07%{-webkit-transform: translate(109.400390625px, 47.25px) rotate(122040deg) translate(-109.400390625px, -47.25px);transform: translate(109.400390625px, 47.25px) rotate(122040deg) translate(-109.400390625px, -47.25px);}100%{-webkit-transform: translate(109.400390625px, 47.25px) rotate(129600deg) translate(-109.400390625px, -47.25px);transform: translate(109.400390625px, 47.25px) rotate(129600deg) translate(-109.400390625px, -47.25px);}}#el_rwrQAcBul *{-webkit-animation-duration: 46.1s;animation-duration: 46.1s;-webkit-animation-iteration-count: infinite;animation-iteration-count: infinite;-webkit-animation-timing-function: cubic-bezier(0, 0, 1, 1);animation-timing-function: cubic-bezier(0, 0, 1, 1);}#el_qDnX2aXg5d{fill: #004c9a;}#el_wyaolRFln6{fill: #004c9a;}#el_k6FQ0i8V7P{fill: #004c9a;}#el_aDUa26-Uwh{fill: #00346e;}#el_LD_9Z8SIpY{fill: #00346e;}#el_7aKMzpmn_x{fill: #00346e;}#el_ZSIOjEgE1O{fill: #00346e;}#el_eNBMlmADUs{fill: #00346e;}#el_TZ1aDBtC2m{fill: #00346e;}#el_TD6v9ArEuT{fill: #00346e;}#el_dLc9bRmEu9{fill: #00346e;}#el_XyeX4pdXKu{fill: #00346e;}#el_twLll-xvD4{fill: #00346e;}#el_iZq8U1gwm-{fill: #00346e;}#el_W786koUvu35{fill: #00346e;}#el_xYTfYyLO7z_{fill: #00346e;}#el_IHeZbMuOBUH{fill: #00346e;}#el_0u9-3qDGY2Z{fill: #00346e;}#el_Ung--6DnTdq{fill: #00346e;}#el_km2BOdQ-ON7{fill: #00346e;}#el_3XEjlsbyorC{fill: #00346e;}#el_S-f996_jaI2{fill: #00346e;}#el_haPMIxDhak0{fill: #00346e;}#el_ZtlNpQbKZO-{fill: #00346e;}#el_prOvVM1ieuS{fill: #00346e;}#el_X5DsuAz2gfi{fill: #00346e;}#el_DvAz7bqrEMG{fill: #00346e;}#el__twE21ZvHj5{fill: #00346e;}#el__SKojH9kBxQ{fill: #00346e;}#el_5-QEtPpgGZW{fill: #00346e;}#el_k7bgpEchP-I{fill: #00346e;}#el_yiFoK9PBpdZ{fill: #fe0000;}#el_034rsD2WoO9{fill-rule: evenodd;clip-rule: evenodd;fill: #fe0000;stroke-linejoin: round;stroke-linecap: round;}#el_034rsD2WoO9_an_HtZIdDF2V{-webkit-animation-fill-mode: backwards;animation-fill-mode: backwards;-webkit-transform: translate(109.400390625px, 47.25px) rotate(129600deg) translate(-109.400390625px, -47.25px);transform: translate(109.400390625px, 47.25px) rotate(129600deg) translate(-109.400390625px, -47.25px);-webkit-animation-name: kf_el_034rsD2WoO9_an_HtZIdDF2V;animation-name: kf_el_034rsD2WoO9_an_HtZIdDF2V;-webkit-animation-timing-function: cubic-bezier(0, 0, 1, 1);animation-timing-function: cubic-bezier(0, 0, 1, 1);}</style>

<g id="el_Hkvdzw4fFq">
	<path d="M129,59c-1.8,2.9-4.3,5.4-7.1,7.6c-0.5,0.4-1.1,0.8-1.5,1.3c2.1,0.1,4.2,0,6.3,0c2.9,0,5.7,0.1,8.6,0&#xA;&#9;&#9;c0.8-0.7,1.3-1.5,1.9-2.3c2-2.9,3.9-6,4.9-9.4c0.8-2.6,1-5.2,1-7.9c0.1-2.3-0.1-4.6-0.7-6.9c-3.2-10.7-6.2-21.5-9.4-32.3&#xA;&#9;&#9;c-0.2-0.7-0.3-1.6-0.7-2.2c-3.4-0.1-6.7,0-10.1,0c3.2,12.2,6.6,24.3,9.9,36.5C132.8,48.7,132,54.4,129,59z" id="el_qDnX2aXg5d"/>
	<path d="M146,48.6c0.1,1.3-0.3,2.6-0.4,3.9c-0.7,4.4-2.2,8.7-4.6,12.4c-0.4,0.7-0.9,1.3-1.3,2c1.2,0.2,2.4-0.2,3.5-0.5&#xA;&#9;&#9;c2.8-0.8,5.2-2.5,7.1-4.6c2-1.9,3.2-4.3,4.5-6.7c1.2-2.3,1.5-5,1.7-7.6c0.1-2.9-0.1-5.9-0.8-8.7c-2.4-7.6-4.8-15.3-7.2-22.9&#xA;&#9;&#9;c-1-3.1-1.9-6.2-3-9.2c-3.3,0.1-6.6,0-10,0c3,11.3,6.1,22.6,9.2,34C145.6,43.3,146,46,146,48.6z" id="el_wyaolRFln6"/>
	<path d="M169,50.4c0-1.2,0.3-2.4,0.2-3.7c0.1-5.6-0.8-11.2-2.7-16.4c-1.6-4.7-3.2-9.4-4.8-14.1&#xA;&#9;&#9;c-1.1-3.1-2.1-6.3-3.3-9.4c-3.4,0-6.8,0-10.2,0c0.6,2.3,1.4,4.5,2.1,6.8c2.1,6.8,4.3,13.6,6.4,20.4c1,3.1,1.7,6.3,1.9,9.5&#xA;&#9;&#9;c0,2.1,0.2,4.2-0.2,6.2c-0.4,3.5-1.6,6.8-3.4,9.8c-2.4,3.8-6,6.7-10.1,8.5c-1.3,0.6-2.6,1.1-3.9,1.5c-1.4,0.4-2.7,0.8-4.2,0.8&#xA;&#9;&#9;c-10,0-20.1,0-30.1,0c-5.5-1.2-10.9-3.7-14.9-7.7c-3-2.9-4.8-6.8-5.5-10.9c-0.4-2-0.3-4-0.2-6c0.5-4.6,2.4-9.1,5.1-12.8&#xA;&#9;&#9;c0.8-1.1,1.8-1.9,2.7-2.9c1.3-1.3,2.9-2.2,4.4-3.1c2.8-1.6,5.9-2.5,9.1-2.8c3-0.1,6,0.3,8.9,1.2c3.6,1.3,7,3.3,9.6,6.2&#xA;&#9;&#9;c0-1.3-0.6-2.5-0.9-3.7c-1-3.9-2.2-7.7-3.2-11.6c-0.1-0.4-0.6-0.5-0.9-0.7c-4-1.4-8.3-2.2-12.6-2.1c-3.8-0.1-7.5,0.8-11,2.2&#xA;&#9;&#9;c-3.1,1.3-6,3.1-8.7,5.1c-3.3,2.7-6.3,6-8.5,9.7c-2.6,4.6-4.4,9.8-4.3,15.2c-0.1,7,1.6,14.1,5.4,19.9c3.4,5.3,8.6,9.4,14.3,12&#xA;&#9;&#9;c3,1.4,6.3,2.5,9.6,3c10.5,0,21.1,0,31.6,0c7.1-0.6,13.9-3.3,19.5-7.7c3.4-2.8,6.4-6.2,8.7-10C167.2,59.1,168.4,54.8,169,50.4z" id="el_k6FQ0i8V7P"/>
	<path d="M75.9,74.1c-2.5,2.5-5.2,4.8-8,7c-1.8,1.6-3.9,2.9-5.5,4.8c-0.4,0.5-0.6,1.1-0.8,1.6c1-0.4,1.7-1.2,2.5-1.8&#xA;&#9;&#9;c2.3-1.7,4.5-3.5,6.8-5.3c2.1-1.8,4.2-3.6,5.9-5.8c0.6-0.9,1.3-1.7,1.6-2.8C77.4,72.5,76.7,73.4,75.9,74.1z" id="el_aDUa26-Uwh"/>
	<path d="M122.7,87.8c0.6-0.7,1.1-1.5,1.2-2.5c-0.5-0.7-1.1-1.2-1.7-1.7c-0.9,0.8-1.3,1.9-1.7,3&#xA;&#9;&#9;C121.2,87.1,121.8,88,122.7,87.8z" id="el_LD_9Z8SIpY"/>
	<path d="M138.6,88.2c0.7-0.7,1.2-1.6,1.3-2.6c-0.1-0.9-0.8-1.5-1.6-1.8c-0.6,0.9-1.1,1.8-1.4,2.9&#xA;&#9;&#9;C137.3,87.4,138.1,87.7,138.6,88.2z" id="el_7aKMzpmn_x"/>
	<path d="M55.4,87.7c0.5-0.7,0.8-1.8,0.3-2.6c-0.3-0.5-0.9-0.9-1.5-0.7c-0.5,0.9-1.1,1.8-1.3,2.8&#xA;&#9;&#9;c0.5,0.4,0.9,0.8,1.4,1.2C54.9,88.6,55.2,88,55.4,87.7z" id="el_ZSIOjEgE1O"/>
	<path d="M136.9,92c0.9,0,1.1-1.1,1.6-1.7c0.5,0.4,0.9,0.9,1.4,1.2c0.1,0,0.2,0,0.3-0.1c0.7-0.7,1.4-1.6,1.3-2.7&#xA;&#9;&#9;c-0.3-0.6-0.9-1.1-1.4-1.5c-0.6,0.5-1,1.2-1.4,1.9c-0.5-0.5-1-0.9-1.6-1.3c-0.7,0.9-1.2,1.9-1.7,2.9&#xA;&#9;&#9;C135.8,91.2,136.3,91.8,136.9,92z" id="el_eNBMlmADUs"/>
	<path d="M54.5,90.7c0.4,0.3,0.8,0.6,1.2,0.9c0.2,0.2,0.7,0.2,0.9-0.1c0.5-0.6,1-1.3,0.9-2.1c0.1-0.8-0.8-1.3-1.3-1.8&#xA;&#9;&#9;c-0.7,0.5-1.1,1.2-1.5,2c-0.5-0.5-1-1-1.5-1.5c-0.9,0.8-1.3,2-1.7,3c0.6,0.5,1.1,1,1.8,1.3C53.8,92,54.2,91.4,54.5,90.7z" id="el_TZ1aDBtC2m"/>
	<path d="M118.6,89.9c-0.5-0.6-1-1.8-2-1.6c-0.7,0.8-1,1.8-1.4,2.7c0.6,0.5,1.2,1,1.9,1.2&#xA;&#9;&#9;C117.9,91.8,118.1,90.7,118.6,89.9z" id="el_TD6v9ArEuT"/>
	<path d="M61.4,90.2c0.1-0.7,0.1-1.4,0.1-2.1c-0.9,0.9-1.2,2.3-1.6,3.6c-0.2,1.8,0,3.5-0.1,5.3c-0.1,0.5-0.4,1-0.7,1.4&#xA;&#9;&#9;c-0.3,0.4-0.8,0.3-1.2,0.3c-0.2,0.3-0.4,0.5-0.7,0.8c-0.3,0-0.6,0-0.9,0c-0.2,0.3-0.3,0.6-0.6,0.8c-0.3,0.1-0.7,0-1,0.1&#xA;&#9;&#9;c-0.4,0.3-0.7,0.7-1.3,0.8c-0.6,0.1-0.6-0.7-0.9-1c-0.2-0.7-1-1-1.6-0.8c-0.9,0.8-1.4,1.9-1.8,2.9c-0.1,0.4-0.1,0.8-0.1,1.2&#xA;&#9;&#9;c0.4,0.9,1.5,0.5,2.3,0.6c-0.5,0.9-1.1,1.8-2,2.4c-1,0.8-2.2,1.3-3,2.3c1.4-0.2,2.8-0.7,4.1-1.3c1.2-1.1,1.6-2.8,2.2-4.2&#xA;&#9;&#9;c1.3-1.2,3.3-1.3,4.8-2.2c1-0.5,1.9-1.2,2.5-2.1c0.9-1.3,1.1-2.8,1.4-4.3C61.5,93.1,61.2,91.6,61.4,90.2z" id="el_dLc9bRmEu9"/>
	<path d="M171.4,88.4c-1.1,0.5-2,1.4-3.2,1.6c-0.9,0.1-1.9,0-2.8,0c-0.8-0.1-1.5-0.5-2.3-0.2c-1.7,0.6-3.1,1.9-3.9,3.5&#xA;&#9;&#9;c0.7-0.1,1.3-0.6,1.9-0.9c1-0.2,1.9,0,2.8,0.3c1.9,0.4,3.7-0.4,5.2-1.4C170.2,90.6,171.3,89.7,171.4,88.4z" id="el_XyeX4pdXKu"/>
	<path d="M88.2,91.2c-0.3-0.8-1-1.3-1.7-1.7c-0.7,0.9-1.5,2-1.4,3.2c0.5,0.5,1.1,1.1,1.9,1.1&#xA;&#9;&#9;C87.6,93,88.2,92.2,88.2,91.2z" id="el_twLll-xvD4"/>
	<path d="M147.9,94c0.5-0.7,1.1-1.7,0.6-2.5c-0.4-0.5-0.9-1.2-1.6-1.1c-0.7,0.8-1.3,1.8-1.3,2.9c0.5,0.4,1,0.8,1.5,1&#xA;&#9;&#9;C147.4,94.5,147.7,94.3,147.9,94z" id="el_iZq8U1gwm-"/>
	<path d="M193.3,90.4c-0.6,0.8-1.1,1.7-1.3,2.7c0.4,0.6,1.1,1,1.7,1.5c0.8-0.6,1.3-1.6,1.6-2.5&#xA;&#9;&#9;C194.8,91.4,194.2,90.3,193.3,90.4z" id="el_W786koUvu35"/>
	<path d="M124.5,93.7c-0.4-0.9-1.3-1.5-2.3-1.3c-0.5,1-1,2-1.5,3c-0.1,0.3-0.1,0.7-0.1,1.1c0.6,0.7,1.7,0.3,2.5,0.4&#xA;&#9;&#9;c0.4,0.3,0.5,1,0,1.3c-0.9,0.1-1.9-0.2-2.8,0.2c-1.2,0.4-2.1,1.4-2.9,2.4c-0.9,1.1-1.7,2.6-1.4,4c0.6,0.8,1.7,1,2.4,1.7&#xA;&#9;&#9;c-0.3,0.9-0.6,1.8-1.3,2.4c-1.5,1.5-3.8,2-5.8,1.7c-0.9-0.2-1.8-0.7-2.2-1.5c-0.7-1.3-0.4-2.9,0.1-4.2c0.6-1.8,1.6-3.5,2.1-5.4&#xA;&#9;&#9;c-0.3,0.2-0.7,0.4-0.8,0.7c-1.2,2.4-2.4,4.9-2.9,7.6c-0.1,1.7-0.3,3.5,0.7,5c1,1.5,3.1,1.9,4.8,1.4c2.2-0.7,3.8-2.5,4.8-4.5&#xA;&#9;&#9;c1-2,1.8-4.1,1.4-6.3c-0.2-0.8-1.4-1-1.5-1.8c0.5-0.7,1.2-1.3,2-1.6c0.9-0.2,1.7,0.8,2.6,0.3c0.8-0.6,1.3-1.5,1.7-2.3&#xA;&#9;&#9;C124.9,96.6,125.3,95,124.5,93.7z" id="el_xYTfYyLO7z_"/>
	<path d="M185.4,103.3c-0.5,0.6-0.8,1.2-0.9,2c-1,0.1-1.6-1-1.6-1.8c-0.1-1.7,0.4-3.3,0.4-5c0.2-1.5,0.6-3.1,0.4-4.6&#xA;&#9;&#9;c-0.2,0.2-0.4,0.5-0.5,0.8c-0.7,1.8-1,3.8-1.2,5.7c-0.4,2.1-0.4,4.2-0.3,6.3c0,0.9,0.7,1.6,1.4,2c0.6,0.1,1.4,0.1,1.8-0.4&#xA;&#9;&#9;c0.7-0.8,1.1-1.9,1.3-3C186.3,104.6,185.8,103.9,185.4,103.3z" id="el_IHeZbMuOBUH"/>
	<path d="M205.5,101.3c-0.3,0.5-0.6,1.1-0.9,1.6c-0.3,0-0.6,0-0.9,0.1c-0.4,0.4-0.6,0.9-0.9,1.3c-0.4,0-1-0.1-1.3,0.2&#xA;&#9;&#9;c-0.7,0.6-1.4,1.4-2.5,1.3c-1,0.1-1.8-0.8-2-1.7c-0.3-2.1,0.3-4.1,0.4-6.2c0.2-1.3,0.5-2.6,0.4-4c-0.6,0.5-0.8,1.3-1,2&#xA;&#9;&#9;c-0.6,1.9-0.7,4-1,5.9c-0.1,1.4-0.1,2.8-0.1,4.2c0,0.7,0.2,1.5,0.6,2.1c0.5,0.7,1.5,0.8,2.2,0.6c1.2-0.5,1.6-1.9,2.7-2.5&#xA;&#9;&#9;c0.4-0.1,0.9-0.1,1.4-0.1c0.4-0.4,0.7-0.9,1.2-1.2C204.9,104.2,205.7,102.7,205.5,101.3z" id="el_0u9-3qDGY2Z"/>
	<path d="M69.2,101.6c-0.5,1.1-1,2.3-0.7,3.6c0.4,1.1,1.7,1.1,2.5,1.6c0.1,0.6-0.2,1.2-0.5,1.7&#xA;&#9;&#9;c-0.9,1.4-2.3,2.4-3.9,2.8c-0.9,0.1-1.9,0.1-2.8,0c-1-0.2-1.8-1-2.2-1.8c-0.1-0.7-0.1-1.4,0-2.1c0.5-2.4,1.8-4.6,2.6-6.9&#xA;&#9;&#9;c0.1-0.3,0.1-0.6,0.1-0.9c-1.1,1-1.4,2.5-2.1,3.7c-1.3,2.7-2.4,5.7-1.9,8.7c0.3,1.3,1.2,2.5,2.5,2.9c1.9,0.5,4,0,5.5-1.3&#xA;&#9;&#9;c1.8-1.5,2.9-3.7,3.4-5.9c0.4-1.3,0.5-2.6,0.3-4c-0.4-0.9-1.5-0.8-2.1-1.6c0-0.5,0.3-0.9,0.6-1.3c0.8-1,1.8-1.9,2.9-2.4&#xA;&#9;&#9;c0.5-0.3,1.1-0.1,1.6-0.2c0.5-0.7,0.8-1.6,1.1-2.4c0.2-0.3,0-0.7-0.1-1C73,96,70.7,98.7,69.2,101.6z" id="el_Ung--6DnTdq"/>
	<path d="M156.4,94.7c-0.6,0.7-1.1,1.4-1.7,2.1c-1.1,1-1.5,2.6-2.5,3.7c-0.4-0.6-0.9-1.3-1.7-1.2&#xA;&#9;&#9;c-0.7,0.3-1.1,1.1-1.4,1.8c-0.4,0.8-0.9,1.7-0.5,2.6c0.5,0.7,1.5,0.3,2.2,0.4c-0.5,1.1-1.4,2.1-2.5,2.8c-0.8,0.6-1.9,1-2.4,2&#xA;&#9;&#9;c1-0.2,1.9-0.5,2.8-0.8c0.6-0.2,1.2-0.4,1.5-0.9c1-1.2,1.3-2.8,1.9-4.2c0.7-1.2,1.2-2.5,2.4-3.4c0.8-0.2,1.8,0.3,2.4-0.4&#xA;&#9;&#9;c0.9-0.7,1-1.9,0.7-2.9C157.3,95.6,156.8,95.2,156.4,94.7z" id="el_km2BOdQ-ON7"/>
	<path d="M79.8,95.6c-0.2,0-0.4,0-0.5,0c-0.5,1.4-1.2,2.7-1.3,4.1c-0.1,1.7,0,3.4,0,5.1c-0.1,1-0.5,2-0.4,3.1&#xA;&#9;&#9;c1.3-1.3,1.6-3.2,1.9-4.9C79.8,100.6,79.3,98.1,79.8,95.6z" id="el_3XEjlsbyorC"/>
	<path d="M162.8,98.1c-0.9,2.3-0.2,4.8-0.5,7.2c-0.1,0.8-0.4,1.6-0.4,2.5c0.3-0.2,0.6-0.4,0.8-0.7c1-1.8,1.2-3.9,1.3-6&#xA;&#9;&#9;c0-1.8,0.1-3.5,0-5.3C163.3,96.3,163.1,97.3,162.8,98.1z" id="el_S-f996_jaI2"/>
	<path d="M100.2,97.9c0.6-0.4,0.7-1.1,0.8-1.8c-0.7,0.2-1.3,0.6-2,0.4c-0.9-0.2-1.8-0.5-2.6-0.2&#xA;&#9;&#9;c-0.8,0.6-1.6,1.4-1.5,2.4c0.4-0.4,0.8-0.8,1.3-1.1c0.9-0.2,1.7,0.2,2.5,0.6c-0.5,0.9-1.1,1.9-2,2.4c-1,0.6-2.1,1-2.8,2&#xA;&#9;&#9;c-0.7,0.8-1,1.9-1.6,2.7c-1.3,1.5-3.6,1.8-4.7,3.5c1.3,0.1,2.6-0.1,3.8-0.7c1.6-0.9,1.7-3.1,3.3-4.1c1-0.6,2-1,2.7-2&#xA;&#9;&#9;C98.5,100.7,98.8,99,100.2,97.9z" id="el_haPMIxDhak0"/>
	<path d="M142,99.8c0.5-0.6,0.8-1.5,0.8-2.3c-0.8,0.5-1.6,1-2.3,1.7c-0.7,0.7-2.2-0.3-2.7,0.9c-0.2,1.5,0.1,3-0.3,4.5&#xA;&#9;&#9;c-0.4,2.6-2.4,5-4.9,5.8c-1,0.4-2.1,0.4-3.1,0.4c-1.4,0-2.7-0.9-3.2-2.1c-0.4-1.9,0.3-3.8,1.1-5.5c0.2-0.4,0.1-0.8,0.1-1.2&#xA;&#9;&#9;c-1.6,2.3-2.6,5-2.6,7.8c0,1.6,0.7,3.4,2.2,4.1c1.7,0.9,3.8,0.6,5.4-0.3c2.5-1.3,4-3.7,5-6.2c0.7-1.8,1.2-3.7,1.2-5.6&#xA;&#9;&#9;c0.6-0.3,1.2-0.6,1.8-1C141,100.3,141.6,100.2,142,99.8z" id="el_ZtlNpQbKZO-"/>
	<path d="M178.7,100.9c-0.7,2,0.3,4.2-0.8,6.1c-0.7,1.6-2.1,2.9-3.8,3.5c-1.3,0.5-2.6,0.4-4,0.3&#xA;&#9;&#9;c-0.9-0.2-1.7-0.6-2.2-1.4c-0.7-1-0.6-2.3-0.3-3.5c0.3-1.3,1-2.5,1.4-3.7c-0.2-0.1-0.5,0.1-0.6,0.3c-1.1,1.8-1.9,3.9-2.2,6.1&#xA;&#9;&#9;c-0.1,1.4-0.1,2.9,0.7,4.1c0.8,1.2,2.2,1.9,3.7,1.8c2.2,0.1,4.2-1.1,5.6-2.7c2.7-3,3.9-7.2,3.8-11.2c0-0.9,0.2-1.8,0.1-2.7&#xA;&#9;&#9;C179.2,98.7,179,99.9,178.7,100.9z" id="el_prOvVM1ieuS"/>
	<path d="M89.7,101.7c0-1.2-0.8-2.2-1.9-2.7c-0.4,0-1.1-0.2-1.3,0.4c-0.5,0.9-0.9,1.9-1.3,2.8c-0.2,0.5,0.1,1,0.4,1.3&#xA;&#9;&#9;c0.7,0.1,1.4,0,2.1,0c0.2,0.2,0.3,0.4,0.5,0.6c-0.4,0.4-0.7,0.9-1.3,1.1c-1.2,0.4-2.6-0.3-3.8,0.3c-1.3,0.7-2.5,1.6-3.3,2.8&#xA;&#9;&#9;c-0.2,0.3-0.4,0.6-0.3,0.9c0.7,0,1.3-0.5,2-0.6c1.2-0.2,2.2,0.6,3.4,0.4c1.3-0.4,2.3-1.6,3.1-2.7C88.9,105,89.8,103.4,89.7,101.7z" id="el_X5DsuAz2gfi"/>
	<path d="M103.3,99.6c-0.8,0.9-1.3,2-1.6,3.1c-0.2,0.7,0.3,1.4,1,1.6c0.4,0,0.8-0.2,1.2-0.2c-0.6,2.5-3.4,3-4.9,4.8&#xA;&#9;&#9;c0.9,0,1.7-0.4,2.6-0.6c0.8-0.3,1.8-0.5,2.2-1.3c0.8-1.4,1.4-2.9,1.7-4.5c0.2-0.9,0.2-2.1-0.6-2.7&#xA;&#9;&#9;C104.5,99.2,103.7,99.1,103.3,99.6z" id="el_DvAz7bqrEMG"/>
	<path d="M45.8,100.8c-0.6,1.3-1.1,2.7-1.9,3.9c-0.9,1.5-2.5,2.2-3.9,3.2c-0.3,0.2-0.5,0.6-0.7,0.9c1,0.1,2-0.2,2.9-0.5&#xA;&#9;&#9;c0.7-0.2,1.4-0.6,1.9-1.2c0.8-1.1,1.2-2.4,1.6-3.6c0.3-1.1,0.8-2.2,0.8-3.4C46.2,100.1,45.9,100.4,45.8,100.8z" id="el__twE21ZvHj5"/>
	<path d="M146.6,99.8c-1.1,1.9-1.6,4.3-3.2,5.9c-1.2,1.1-2.6,1.8-3.8,2.7c0.6,0.5,1.3,0.2,2,0.1&#xA;&#9;&#9;c1.2-0.3,2.5-0.7,3.1-1.8c0.8-1.4,1.3-3,1.8-4.5C146.6,101.4,147.2,100.5,146.6,99.8z" id="el__SKojH9kBxQ"/>
	<path d="M190.2,105.2c-1.2,1.3-2.9,2-4.2,3.2c0.5,0.5,1.2,0.3,1.8,0.1c1.1-0.3,2.5-0.6,3.2-1.7&#xA;&#9;&#9;c0.7-1.2,1.1-2.5,1.6-3.8c0.3-1,0.7-1.9,0.7-3c-0.1,0-0.4,0.1-0.5,0.1C192,101.9,191.4,103.7,190.2,105.2z" id="el_5-QEtPpgGZW"/>
	<path d="M173.4,106.4c1-0.8,1.7-2.1,1.3-3.4c-0.4-0.5-0.9-0.9-1.4-1.4c-0.8,0.9-1.5,2-1.6,3.3&#xA;&#9;&#9;C172.2,105.6,172.8,106,173.4,106.4z" id="el_k7bgpEchP-I"/>
</g>
<path d="M119.7,47l-0.5-0.1l-2.1-0.8l-1.8-1.2l-0.7-0.4l-0.5-0.3l-1-0.8l-0.8-0.5c0,0,1.9-1.7,1.9-2.3l-1-1&#xA;&#9;c0,0-0.8-0.6-1.3-0.4s-0.2,0-0.6,0.4c0,0-0.3,0.5-0.6,1.2c-0.3,0.7-0.5,0.6-0.5,0.6s-0.4,0-1.2-0.2l-0.7-0.1c0,0-0.4,0.1-0.6,0.3&#xA;&#9;c-0.2,0.2-1.2,0.9-1.2,0.9l-1.1,0.8l-0.6,0.6l-0.5,0.5l-0.3,0.5l-1.5,0v1.1l2,0.9c0,0-0.3,1.6-2.5,2.4c0,0-0.5,0.1-1.4,1.4L100,51&#xA;&#9;l0.9,1.8l0.1-0.1l0.9-0.5l14.9-0.1l1.6,0.6l1.6-3.7L119.7,47z M106,44.6c0.4-0.4,1.3-0.6,1.3-0.6c-0.8,1.8-2.1,1.5-2.1,1.5&#xA;&#9;S105.5,44.9,106,44.6z M105.7,51.7v-0.6c0,0,1.1-0.1,2.7,0.5L105.7,51.7z M109.7,48.2c-0.3,0.6-1.5,0.8-1.5,0.8l0,0.3l1.3,0.4&#xA;&#9;c-0.4,0.3-1.4,0.5-1.4,0.5l-2,0l-0.8-0.2c0,0-0.5,1.2-1.3,1.4c-0.9,0.2-1.7-0.2-1.7-0.2s0.7-0.8,1.2-1.1c0.5-0.3,1.4-0.4,1.4-0.4&#xA;&#9;c1.2-0.7,2.4-1.6,2.4-1.6l0.8,0.3l-0.1-0.7c-1.7-0.4-3-1.3-3-1.3l0.5-0.7c0,0,2.3,1.2,2.7,1.3c0.4,0.1,1.5,0,1.5,0L109.7,48.2z&#xA;&#9; M113,49.5c-0.6,0-0.7,2-0.7,2l-0.6-1.8c0.1-0.6-0.3-1.5-0.3-1.5c-0.5-1-1.4-2.1-1.4-2.1s-0.1,0,0.7-0.8c0.8-0.8,1.4-0.3,1.4-0.3&#xA;&#9;l2.2,1.2l-0.1,1.5c1.2,0,2.5,0.7,2.5,0.7s-0.6,0.6-1.1,1C115.2,49.7,113.6,49.5,113,49.5z M119,51.5h-5.2l-0.1-1.2&#xA;&#9;c0,0,0.4-0.2,2.3-0.3s1.3-2,1.3-2s-0.7-0.7-2.2-0.7l-0.2-0.6c0,0,3.1-0.5,3.9,1.3c0.8,1.7,0.8,2.1,0.8,2.1L119,51.5z" id="el_yiFoK9PBpdZ"/>
<g id="el_034rsD2WoO9_an_HtZIdDF2V" data-animator-group="true" data-animator-type="1"><path d="M101.3,65.1l-5.5-3.6l2.2-3c-1.4-1.4-2.6-3.1-3.4-4.9l-0.3,0.1l-3.5,0.9l-1.3-6.5l3.7-0.6c0-0.2,0-0.4,0-0.5&#xA;&#9;c0-2.1,0.4-4.1,1.1-5.9l0,0l-3.1-1.8l3.6-5.5l2.8,2.1c1.5-1.5,3.2-2.8,5.2-3.6l-0.1-0.1l-0.9-3.5l6.5-1.3l0.5,3.6c0.1,0,0.3,0,0.4,0&#xA;&#9;c2.2,0,4.3,0.4,6.2,1.2l0.1-0.1l1.8-3.1l5.5,3.6l-2.2,3c1.6,1.6,2.8,3.4,3.7,5.5l0.2-0.1l3.5-0.9l1.3,6.5l-3.8,0.6l-0.1,0&#xA;&#9;c0,2.3-0.5,4.5-1.4,6.5l0.1,0l3.1,1.8l-3.6,5.5l-3.1-2.3l0,0c-1.6,1.5-3.5,2.7-5.6,3.5l0,0.1l0.9,3.5l-6.5,1.3l-0.6-3.8l0-0.1&#xA;&#9;c-2-0.1-4-0.5-5.8-1.2l0,0.1L101.3,65.1L101.3,65.1z M109.4,36.9c5.6,0,10.1,4.5,10.1,10.2c0,5.6-4.5,10.1-10.2,10.1&#xA;&#9;S99.2,52.6,99.2,47S103.8,36.9,109.4,36.9L109.4,36.9z" id="el_034rsD2WoO9"/></g>
</svg>